<svg xmlns="http://www.w3.org/2000/svg" width="224" height="224" fill-rule="evenodd" clip-rule="evenodd" image-rendering="optimizeQuality" shape-rendering="geometricPrecision" text-rendering="geometricPrecision" viewBox="0 0 2333.33 2333.33"><path fill="#ffffff" fill-rule="nonzero" d="M1505.54 670.72c10.41-10.41 10.41-27.3 0-37.71-10.41-10.41-27.3-10.41-37.71 0l-195.62 195.62c-10.41 10.41-10.41 27.3 0 37.71 10.41 10.41 27.3 10.41 37.71 0l195.62-195.62zM940.48 1987.38c0 14.73 11.94 26.67 26.67 26.67 14.73 0 26.67-11.94 26.67-26.67l0-1018.18c0-57.04-14.28-110.98-39.44-158.41-26.11-49.22-63.93-91.36-109.65-122.61-12.14-8.28-28.7-5.16-36.98 6.98-8.28 12.14-5.16 28.7 6.98 36.98 38.63 26.4 70.56 61.96 92.56 103.44 21.17 39.91 33.19 85.41 33.19 133.62l0 1018.18zm-448.06-1255.24c12.14-8.28 15.26-24.84 6.98-36.98-8.28-12.14-24.84-15.26-36.98-6.98-45.72 31.25-83.54 73.39-109.65 122.61-25.16 47.43-39.44 101.37-39.44 158.41l0 1018.18c0 14.73 11.94 26.67 26.67 26.67 14.73 0 26.67-11.94 26.67-26.67l0-1018.18c0-48.21 12.02-93.71 33.19-133.62 22.01-41.48 53.94-77.04 92.56-103.44z"/><path fill="#ffffff" fill-rule="nonzero" d="M653.56 319.28l.02 0c55.8 0 106.51 22.81 143.25 59.56 36.74 36.74 59.56 87.45 59.56 143.25l0 301.98c0 55.8-22.81 106.51-59.56 143.25-36.74 36.74-87.46 59.56-143.25 59.56l-.02 0c-55.8 0-106.51-22.81-143.25-59.56-36.75-36.74-59.56-87.46-59.56-143.25l0-301.98c0-55.8 22.81-106.5 59.56-143.25 36.74-36.75 87.46-59.56 143.25-59.56zm.02 53.34l-.02 0c-41.07 0-78.44 16.83-105.54 43.93-27.1 27.1-43.93 64.46-43.93 105.54l0 301.98c0 41.07 16.83 78.44 43.93 105.54 27.1 27.1 64.47 43.93 105.54 43.93l.02 0c41.07 0 78.44-16.83 105.54-43.93 27.1-27.1 43.93-64.47 43.93-105.54l0-301.98c0-41.07-16.83-78.44-43.93-105.54-27.1-27.1-64.47-43.93-105.54-43.93zM529.69 1786.44c-14.73 0-26.67 11.94-26.67 26.67 0 14.73 11.94 26.67 26.67 26.67l255.5 0c14.73 0 26.67-11.94 26.67-26.67 0-14.73-11.94-26.67-26.67-26.67l-255.5 0zM446.42 1960.71c-14.73 0-26.67 11.94-26.67 26.67 0 14.73 11.94 26.67 26.67 26.67l422.05 0c14.73 0 26.67-11.94 26.67-26.67 0-14.73-11.94-26.67-26.67-26.67l-422.05 0zM1371.09 1987.38c0 14.73 11.94 26.67 26.67 26.67 14.73 0 26.67-11.94 26.67-26.67l0-699.11c0-40.55-10.16-78.92-28.06-112.66-18.57-35-45.46-64.96-77.96-87.17-12.14-8.28-28.7-5.16-36.98 6.98-8.28 12.14-5.16 28.7 6.98 36.98 25.41 17.36 46.41 40.74 60.87 68 13.91 26.22 21.81 56.14 21.81 87.87l0 699.11zm-294.58-854.98c12.14-8.28 15.26-24.84 6.98-36.98-8.28-12.14-24.84-15.26-36.98-6.98-32.5 22.2-59.4 52.17-77.97 87.18-17.9 33.74-28.06 72.11-28.06 112.65l0 699.11c0 14.73 11.94 26.67 26.67 26.67 14.73 0 26.67-11.94 26.67-26.67l0-699.11c0-31.72 7.9-61.63 21.81-87.86 14.47-27.27 35.48-50.65 60.89-68.01z"/><path fill="#6633CC" fill-rule="nonzero" d="M1147.22 918.68c-0.69,-0.67 -1.34,-1.38 -1.96,-2.13 -1.77,-2.15 -3.15,-4.48 -4.14,-6.93 -6.91,3.8 -13.47,8.14 -19.52,12.95 -19.77,15.72 -33.41,36.26 -33.41,58.7l0 207.35c0,51.91 42.48,94.27 94.3,94.27 25.91,0 49.47,-10.61 66.56,-27.7 17.09,-17.09 27.7,-40.66 27.7,-66.56l0 -207.35c0,-4.02 -0.23,-7.93 -0.69,-11.74l-15.09 18.29c-0.91,1.33 -1.96,2.59 -3.14,3.77 -10.41,10.41 -27.3,10.41 -37.71,-0l0 0 -72.9 -72.91z"/><path fill="#6633CC" fill-rule="nonzero" d="M1222.99 886.86l-17.63 14.54 31.79 31.79 5.16 -6.26c0.9,-1.31 1.9,-2.52 3,-3.64l19.03 -23.07 -0.06 -0.09c9.37,-11.36 26.18,-12.98 37.54,-3.61 2.89,2.39 5.16,5.26 6.76,8.4 6.67,10.96 11.96,22.9 15.63,35.56 3.81,13.19 5.86,26.9 5.86,40.78l0 207.35c0,40.63 -16.6,77.54 -43.33,104.27 -26.74,26.74 -63.65,43.33 -104.27,43.33 -81.23,0 -147.63,-66.39 -147.63,-147.61l0 -207.35c0,-40.33 21.9,-75.14 53.63,-100.37 33.41,-26.56 78.53,-42.68 119.41,-42.68 14.73,0 26.67,11.94 26.67,26.67 0,9.12 -4.57,17.17 -11.56,21.98z"/><path fill="#ffffff" fill-rule="nonzero" d="M1097.4 1841.06c-14.73 0-26.67 11.94-26.67 26.67 0 14.73 11.94 26.67 26.67 26.67l175.44 0c14.73 0 26.67-11.94 26.67-26.67 0-14.73-11.94-26.67-26.67-26.67l-175.44 0zM1040.23 1960.71c-14.73 0-26.67 11.94-26.67 26.67 0 14.73 11.94 26.67 26.67 26.67l289.78 0c14.73 0 26.67-11.94 26.67-26.67 0-14.73-11.94-26.67-26.67-26.67l-289.78 0zM1885.16 1600.93c72.1 89.67 124.8 173.33 133.52 243.39 9.85 79.21-30.42 139.12-148.99 168.88l.01.04c-2.31.58-4.62.84-6.89.8l-170.86 0c-2.84 0-5.57-.45-8.14-1.27-117.27-29.91-157.14-89.62-147.33-168.46 8.76-70.46 62.01-154.67 134.74-244.92l-.04-.07c5.26-6.53 12.98-9.93 20.76-9.93l0 0 171.26 0c9.11 0 17.14 4.56 21.96 11.53zm80.59 249.85c-7.04-56.62-52.35-128.75-115.28-208.04l-145.8 0c-62.93 79.29-108.24 151.42-115.28 208.04-6.17 49.6 22.63 88.27 105.76 109.93l164.85 0c83.13-21.66 111.93-60.32 105.76-109.93z"/><path fill="#ffffff" fill-rule="nonzero" d="M1720.33 1589.4l114.52 0 0 -116.13c0,-26.55 -13.5,-111.71 -34.06,-174.78 -10.33,-31.69 -19.52,-56.02 -23.19,-56.02l-0.04 0c-3.66,0 -12.85,24.32 -23.18,56.01 -20.56,63.08 -34.06,148.26 -34.06,174.79l0 116.13zm141.19 53.34l-167.86 0c-14.73,0 -26.67,-11.94 -26.67,-26.67l0 -142.8c0,-29.6 14.57,-123.15 36.77,-191.24 17.13,-52.55 41.45,-92.89 73.81,-92.89l0.04 0c32.36,0 56.69,40.33 73.81,92.9 22.19,68.09 36.76,161.61 36.76,191.24l0 142.8c0,14.73 -11.94,26.67 -26.67,26.67z"/><path fill="#6633CC" fill-rule="nonzero" d="M1663.44 543.99c0,-17.56 -6.59,-35.11 -19.77,-48.47l-0.33 -0.32 0 -0 -0 -0c-13.39,-13.39 -31.08,-20.09 -48.78,-20.09 -17.7,0 -35.39,6.7 -48.78,20.09l-0 0 -89.02 89.02 97.58 97.58 89.02 -89.02c13.39,-13.39 20.09,-31.08 20.09,-48.79z"/><path fill="#6633CC" fill-rule="nonzero" d="M1680.48 456.93c0.36,0.34 0.72,0.7 1.06,1.06 23.48,23.75 35.23,54.89 35.23,86 0,31.33 -11.91,62.69 -35.72,86.5l-107.87 107.87 0 0c-10.41,10.41 -27.3,10.41 -37.72,0l-0.32 -0.33 -134.96 -134.96 -0 0c-10.41,-10.41 -10.41,-27.3 0,-37.72l0.33 -0.32 107.55 -107.55 0 -0c23.81,-23.8 55.17,-35.72 86.49,-35.72 31.08,0 62.19,11.73 85.93,35.16z"/><path fill="#ffffff" fill-rule="nonzero" d="M1281.97 800.67l56.02 56.02c10.35,10.35 10.41,27.1 0.18,37.52l-78.68 95.39 0.05 0.09c-9.37,11.36 -26.18,12.97 -37.54,3.6 -0.76,-0.62 -1.46,-1.28 -2.13,-1.96l-72.91 -72.91 -0 0c-10.41,-10.41 -10.41,-27.3 0,-37.72 1.18,-1.18 2.45,-2.23 3.78,-3.14l95.36 -78.65 -0.06 -0.08c10.74,-8.86 26.35,-7.89 35.94,1.83zm1.24 76.67l-22 -22.01 -55.86 46.07 31.79 31.79 46.07 -55.85z"/></svg>