<svg xmlns="http://www.w3.org/2000/svg" width="224" height="224" fill-rule="evenodd" clip-rule="evenodd" image-rendering="optimizeQuality" shape-rendering="geometricPrecision" text-rendering="geometricPrecision" viewBox="0 0 2333.33 2333.33"><path fill="#6633CC" fill-rule="nonzero" d="M1930.62 1405.6c-18.76,-18.76 -43.51,-31.51 -71.02,-35.04l0 243.26c27.51,-3.54 52.26,-16.29 71.02,-35.04 22.23,-22.23 36.04,-52.89 36.04,-86.59 0,-33.69 -13.81,-64.35 -36.04,-86.58z"/><path fill="#6633CC" fill-rule="nonzero" d="M1832.93 1316.22l11.1 0c48.42,0 92.42,19.79 124.3,51.67 31.88,31.88 51.67,75.88 51.67,124.29 0,48.42 -19.79,92.42 -51.67,124.3 -31.88,31.88 -75.88,51.67 -124.3,51.67l-11.1 0c-14.73,0 -26.67,-11.94 -26.67,-26.67l0 -298.59c0,-14.73 11.94,-26.67 26.67,-26.67z"/><path fill="#ffffff" fill-rule="nonzero" d="M1806.26 1625.44c0,14.73 11.94,26.67 26.67,26.67 14.73,0 26.67,-11.94 26.67,-26.67l0 -483.67c0,-181.09 -74.06,-345.69 -193.38,-465.01 -119.31,-119.31 -283.92,-193.38 -465.01,-193.38l-69.1 0c-181.09,0 -345.69,74.06 -465.01,193.38 -119.31,119.31 -193.38,283.92 -193.38,465.01l0 483.67c0,14.73 11.94,26.67 26.67,26.67 14.73,0 26.67,-11.94 26.67,-26.67l0 -483.67c0,-166.37 68.07,-317.63 177.75,-427.3 109.67,-109.67 260.93,-177.75 427.3,-177.75l69.1 0c166.37,0 317.63,68.07 427.3,177.75 109.67,109.67 177.75,260.93 177.75,427.3l0 483.67z"/><path fill="#ffffff" fill-rule="nonzero" d="M1692.01 1682.67l92.76 0c5.89,0 11.26,-2.43 15.16,-6.33l-0 -0c0.33,-0.33 0.67,-0.65 1,-0.95 3.31,-3.76 5.33,-8.73 5.33,-14.2l0 -337.98c0,-11.84 -9.66,-21.5 -21.5,-21.5l-92.76 0c-11.86,0 -21.5,9.65 -21.5,21.5l0 337.98c0,11.84 9.67,21.49 21.5,21.49zm92.76 53.34l-92.76 0c-41.07,0 -74.83,-33.7 -74.83,-74.83l0 -337.98c0,-41.13 33.69,-74.83 74.83,-74.83l92.76 0c41.08,0 74.83,33.7 74.83,74.83l0 337.98c0,19.6 -7.7,37.56 -20.24,50.98 -0.54,0.65 -1.11,1.28 -1.72,1.89l-0 -0c-13.55,13.55 -32.26,21.96 -52.87,21.96z"/><path fill="#6633CC" fill-rule="nonzero" d="M473.73 1370.56c-27.51,3.54 -52.26,16.29 -71.02,35.04 -22.24,22.23 -36.04,52.89 -36.04,86.58 0,33.7 13.81,64.36 36.04,86.59 18.76,18.76 43.51,31.51 71.02,35.04l0 -243.26z"/><path fill="#6633CC" fill-rule="nonzero" d="M489.3 1316.22l11.1 0c14.73,0 26.67,11.94 26.67,26.67l0 298.59c0,14.73 -11.94,26.67 -26.67,26.67l-11.1 0c-48.42,0 -92.42,-19.79 -124.3,-51.67 -31.88,-31.88 -51.67,-75.88 -51.67,-124.3 0,-48.41 19.79,-92.41 51.67,-124.29 31.88,-31.88 75.88,-51.67 124.3,-51.67z"/><path fill="#ffffff" fill-rule="nonzero" d="M1166.67 1079.72c106.33 0 202.62 43.11 272.31 112.8 69.69 69.69 112.8 165.98 112.8 272.31 0 106.33-43.11 202.62-112.8 272.31-69.69 69.69-165.98 112.8-272.31 112.8-106.33 0-202.62-43.11-272.31-112.8-69.69-69.69-112.8-165.98-112.8-272.31 0-106.33 43.11-202.62 112.8-272.31 69.69-69.69 165.98-112.8 272.31-112.8zm234.6 150.51c-60.04-60.04-142.98-97.17-234.6-97.17-91.62 0-174.57 37.13-234.6 97.17-60.04 60.04-97.17 142.98-97.17 234.6 0 91.62 37.13 174.57 97.17 234.6 60.04 60.04 142.98 97.17 234.6 97.17 91.62 0 174.57-37.13 234.6-97.17 60.04-60.04 97.17-142.98 97.17-234.6 0-91.62-37.13-174.57-97.17-234.6zM548.56 1682.67l92.76 0c11.82 0 21.5-9.71 21.5-21.49l0-337.98c0-11.84-9.66-21.5-21.5-21.5l-92.76 0c-11.77 0-21.5 9.73-21.5 21.5l0 337.98c0 11.83 9.67 21.49 21.5 21.49zm92.76 53.34l-92.76 0c-41.07 0-74.83-33.7-74.83-74.83l0-337.98c0-41.2 33.63-74.83 74.83-74.83l92.76 0c41.08 0 74.83 33.7 74.83 74.83l0 337.98c0 41.15-33.69 74.83-74.83 74.83z"/><path fill="#6633CC" fill-rule="nonzero" d="M1221.47 1410.02c-14.02,-14.02 -33.4,-22.7 -54.81,-22.7 -21.41,0 -40.79,8.68 -54.81,22.7 -14.02,14.02 -22.7,33.41 -22.7,54.81 0,21.41 8.68,40.79 22.7,54.81 14.02,14.02 33.4,22.7 54.81,22.7 21.41,0 40.79,-8.68 54.81,-22.7 14.02,-14.02 22.7,-33.4 22.7,-54.81 0,-21.4 -8.68,-40.78 -22.7,-54.81z"/><path fill="#6633CC" fill-rule="nonzero" d="M1166.67 1333.99c36.13,0 68.84,14.65 92.52,38.33 23.68,23.68 38.33,56.4 38.33,92.52 0,36.13 -14.65,68.84 -38.33,92.52 -23.67,23.67 -56.39,38.33 -92.52,38.33 -36.13,0 -68.84,-14.65 -92.52,-38.33 -23.67,-23.67 -38.33,-56.39 -38.33,-92.52 0,-36.12 14.65,-68.83 38.33,-92.52 23.67,-23.67 56.39,-38.33 92.52,-38.33z"/><path fill="#ffffff" fill-rule="nonzero" d="M873.29 1464.83c0 14.73 11.94 26.67 26.67 26.67 14.73 0 26.67-11.94 26.67-26.67 0-66.28 26.87-126.3 70.3-169.73 43.43-43.43 103.44-70.3 169.73-70.3 14.73 0 26.67-11.94 26.67-26.67 0-14.73-11.94-26.67-26.67-26.67-81.01 0-154.35 32.84-207.44 85.93-53.09 53.09-85.93 126.44-85.93 207.44zM840.02 986.47c-2.41 14.5 7.38 28.21 21.88 30.63 14.5 2.41 28.21-7.38 30.63-21.88l32.8-194.41 116.78 53.4c13.34 6.1 29.11.22 35.21-13.12 6.1-13.34.22-29.11-13.12-35.21l-146.16-66.84c-2.64-1.5-5.58-2.57-8.75-3.11-14.52-2.45-28.28 7.34-30.73 21.86l-38.52 228.69z"/><path fill="#6633CC" fill-rule="nonzero" d="M836.51 970.96c-3.06,-4.31 -7.78,-7.45 -13.39,-8.4 -5.69,-0.96 -11.2,0.46 -15.5,3.52 -4.02,2.86 -7.04,7.17 -8.19,12.3l-0.17 1.17 -0.06 -0.01c-0.94,5.67 0.48,11.16 3.52,15.44 2.86,4.03 7.17,7.04 12.31,8.19l1.15 0.17 -0.01 0.05c5.67,0.94 11.16,-0.47 15.45,-3.52 4.31,-3.06 7.45,-7.78 8.4,-13.39 0.96,-5.69 -0.46,-11.21 -3.52,-15.51z"/><path fill="#6633CC" fill-rule="nonzero" d="M831.86 910.06c20.14,3.4 37,14.64 47.98,30.07 10.97,15.43 16.07,35.02 12.69,55.09 -3.39,20.14 -14.64,37.01 -30.07,47.98 -14.9,10.6 -33.69,15.72 -53.03,13 -1.5,-0.13 -2.98,-0.38 -4.4,-0.75 -19.11,-3.84 -35.1,-14.81 -45.64,-29.63 -10.6,-14.9 -15.72,-33.69 -13,-53.02 0.13,-1.51 0.38,-2.98 0.75,-4.4 3.85,-19.11 14.8,-35.1 29.63,-45.64 15.43,-10.97 35.02,-16.07 55.09,-12.69z"/><path fill="#ffffff" fill-rule="nonzero" d="M1277.51 917.11c-2.41,14.5 7.38,28.21 21.88,30.63 14.5,2.41 28.21,-7.38 30.63,-21.88l32.8 -194.41 116.78 53.4c13.34,6.1 29.11,0.22 35.21,-13.12 6.1,-13.34 0.22,-29.11 -13.12,-35.21l-146.16 -66.84c-2.64,-1.5 -5.58,-2.57 -8.75,-3.11 -14.52,-2.45 -28.28,7.34 -30.73,21.86l-38.52 228.69z"/><path fill="#6633CC" fill-rule="nonzero" d="M1274 901.6c-3.06,-4.31 -7.78,-7.45 -13.39,-8.4 -5.69,-0.96 -11.2,0.46 -15.5,3.52 -4.02,2.86 -7.04,7.17 -8.19,12.3l-0.17 1.17 -0.06 -0.01c-0.94,5.67 0.48,11.16 3.52,15.44 2.86,4.02 7.17,7.04 12.31,8.19l1.15 0.17 -0.01 0.05c5.67,0.94 11.16,-0.47 15.45,-3.52 4.31,-3.06 7.45,-7.78 8.4,-13.39 0.96,-5.69 -0.46,-11.21 -3.52,-15.51z"/><path fill="#6633CC" fill-rule="nonzero" d="M1269.35 840.7c20.14,3.4 37,14.64 47.98,30.07 10.98,15.43 16.07,35.02 12.69,55.09 -3.39,20.14 -14.64,37.01 -30.07,47.98 -14.9,10.6 -33.69,15.72 -53.03,13 -1.5,-0.13 -2.98,-0.38 -4.4,-0.75 -19.11,-3.84 -35.1,-14.81 -45.64,-29.63 -10.6,-14.9 -15.72,-33.69 -13,-53.02 0.13,-1.51 0.38,-2.98 0.75,-4.4 3.85,-19.11 14.81,-35.1 29.63,-45.64 15.43,-10.97 35.02,-16.07 55.09,-12.69z"/></svg>