<svg xmlns="http://www.w3.org/2000/svg" width="224" height="224" fill-rule="evenodd" clip-rule="evenodd" image-rendering="optimizeQuality" shape-rendering="geometricPrecision" text-rendering="geometricPrecision" viewBox="0 0 2333.33 2333.33"><path fill="#ffffff" d="M1611.52 641.53l-1208.17 0c-49.5,0 -90.02,40.52 -90.02,90.02l0 633.67c0,49.48 40.51,90.02 90.02,90.02l954.47 0c0.93,0 1.86,-0.05 2.8,-0.15 14.65,-1.54 25.26,-14.67 23.72,-29.32l-0.07 0.01c-1.72,-16.37 -1.72,-34.55 0.13,-53.83 5.54,-57.88 29.28,-129.93 66.67,-174.04 13.87,-16.37 42.2,-44.53 61.6,-20.94 4.87,5.92 8.96,14.27 12.19,24.57 2.84,11.68 13.37,20.35 25.92,20.35l124.09 0c14.73,0 26.67,-11.94 26.67,-26.67l0 -463.66c0,-49.51 -40.49,-90.02 -90.02,-90.02zm-1244.85 90.02c0,-20.17 16.55,-36.68 36.68,-36.68l1208.17 0c20.11,0 36.68,16.48 36.68,36.68l0 436.99 -79 0c-4.32,-9.54 -9.5,-18.05 -15.49,-25.33 -42.22,-51.29 -103.89,-26.15 -143.27,20.31 -44.76,52.82 -72.22,133.15 -78.96,203.42 -1.15,12.03 -1.7,23.72 -1.66,34.95l-926.47 0c-20.22,0 -36.68,-16.48 -36.68,-36.68l0 -633.67z"/><path fill="#ffffff" d="M2006.23 1300.22l0 0zm-0.46 -1.87l0 0zm-452.06 -155.15c-42.63,-51.81 -104.26,-25.72 -143.28,20.33 -28.55,33.61 -58,93.25 -66.92,136.68 -14.47,54.73 -17.08,107.59 -9.58,148.94 8.76,48.31 31.76,82.92 66.9,92.33 30.59,8.2 62.6,-4.62 91.29,-32.7 21.61,-21.15 41.93,-51.76 58.1,-88.49l249.3 0c16.17,36.72 36.49,67.34 58.1,88.49 28.69,28.08 60.71,40.9 91.29,32.7 35.14,-9.41 58.14,-44.02 66.9,-92.33 7.5,-41.34 4.88,-94.21 -9.58,-148.93l-0.09 -0.39 -0.06 -0.27 -0.08 -0.31 -0.1 -0.39 -0.03 -0.11 -0.15 -0.39c-14.83,-55.14 -39.13,-102.62 -66.43,-134.83 -39.39,-46.47 -101.06,-71.62 -143.28,-20.33 -5.99,7.28 -11.17,15.79 -15.49,25.33l-211.34 0c-4.32,-9.54 -9.5,-18.05 -15.49,-25.33zm400.78 169.8l0 0zm-559.23 -0.03l0 0zm129.99 -110.08c3.48,11.54 14.07,18.98 25.53,18.98l0.41 0 247.77 0c12.55,0 23.08,-8.67 25.92,-20.35 3.22,-10.3 7.32,-18.65 12.19,-24.57 19.41,-23.59 47.74,4.58 61.61,20.96 22.39,26.42 42.59,66.28 55.38,113.4l0.3 1.25 0.02 0.06 0.12 0.43 0.13 0.42 0.1 0.34 0.02 0.06c12.49,47.28 14.94,91.9 8.77,125.91 -5.02,27.7 -14.88,46.65 -28.36,50.26 -10.92,2.93 -25.22,-4.45 -40.25,-19.17 -19.72,-19.3 -38.5,-49.62 -52.85,-86.8l0.08 -0.03c-4.08,-10.58 -14.18,-17.07 -24.88,-17.07l-0.46 0 -284.32 0c-12.1,0 -22.32,8.06 -25.58,19.1 -14.25,36.27 -32.7,65.85 -52.07,84.8 -15.04,14.71 -29.33,22.09 -40.25,19.17 -13.48,-3.61 -23.33,-22.56 -28.36,-50.26 -6.21,-34.23 -3.69,-79.2 9.04,-126.8l0.11 -0.38 0.05 -0.19 0.06 -0.24 0.11 -0.45 0.04 -0.17 0.07 -0.31c12.79,-47.09 32.99,-86.93 55.37,-113.33 14.18,-16.73 42.3,-44.43 61.61,-20.96 5.07,6.16 9.31,14.96 12.59,25.86l-0.01 0.09z"/><path fill="#ffffff" fill-rule="nonzero" d="M787.78 1401.9l439.32 0c14.73,0 26.67,11.94 26.67,26.67l0 236.56c0,14.73 -11.94,26.67 -26.67,26.67l-439.32 0c-14.73,0 -26.67,-11.94 -26.67,-26.67l0 -236.56c0,-14.73 11.94,-26.67 26.67,-26.67zm412.65 53.34l-385.98 0 0 183.22 385.98 0 0 -183.22z"/><path fill="#ffffff" fill-rule="nonzero" d="M631.46 1638.46c-14.73,0 -26.67,11.94 -26.67,26.67 0,14.73 11.94,26.67 26.67,26.67l751.93 0c14.73,0 26.67,-11.94 26.67,-26.67 0,-14.73 -11.94,-26.67 -26.67,-26.67l-751.93 0z"/><path fill="#6633CC" fill-rule="nonzero" d="M780.35 892.32c40.02,0 76.26,16.23 102.49,42.46 26.22,26.22 42.46,62.47 42.46,102.49 0,40.02 -16.23,76.26 -42.46,102.49 -26.23,26.22 -62.47,42.46 -102.49,42.46 -40.02,0 -76.26,-16.23 -102.49,-42.46 -26.23,-26.23 -42.46,-62.47 -42.46,-102.49 0,-40.02 16.23,-76.26 42.46,-102.49 26.23,-26.22 62.47,-42.46 102.49,-42.46zm64.78 80.17c-16.57,-16.57 -39.48,-26.83 -64.78,-26.83 -25.3,0 -48.21,10.26 -64.78,26.83 -16.57,16.57 -26.83,39.48 -26.83,64.78 0,25.3 10.26,48.2 26.83,64.78 16.57,16.57 39.48,26.83 64.78,26.83 25.3,0 48.2,-10.26 64.78,-26.83 16.57,-16.57 26.83,-39.48 26.83,-64.78 0,-25.3 -10.26,-48.21 -26.83,-64.78z"/><path fill="#6633CC" fill-rule="nonzero" d="M805.72 818.53c0-14.73-11.94-26.67-26.67-26.67-14.73 0-26.67 11.94-26.67 26.67l0 143.63c0 14.73 11.94 26.67 26.67 26.67 14.73 0 26.67-11.94 26.67-26.67l0-143.63zM999.08 1062.65c14.73 0 26.67-11.94 26.67-26.67 0-14.73-11.94-26.67-26.67-26.67l-143.63 0c-14.73 0-26.67 11.94-26.67 26.67 0 14.73 11.94 26.67 26.67 26.67l143.63 0zM754.97 1256c0 14.73 11.94 26.67 26.67 26.67 14.73 0 26.67-11.94 26.67-26.67l0-143.63c0-14.73-11.94-26.67-26.67-26.67-14.73 0-26.67 11.94-26.67 26.67l0 143.63zM561.61 1011.89c-14.73 0-26.67 11.94-26.67 26.67 0 14.73 11.94 26.67 26.67 26.67l143.63 0c14.73 0 26.67-11.94 26.67-26.67 0-14.73-11.94-26.67-26.67-26.67l-143.63 0zM1539.22 1255.57c0-14.73-11.94-26.67-26.67-26.67-14.73 0-26.67 11.94-26.67 26.67l0 73.79c0 14.73 11.94 26.67 26.67 26.67 14.73 0 26.67-11.94 26.67-26.67l0-73.79z"/><path fill="#6633CC" fill-rule="nonzero" d="M1549.44 1319.14c14.73 0 26.67-11.94 26.67-26.67 0-14.73-11.94-26.67-26.67-26.67l-73.79 0c-14.73 0-26.67 11.94-26.67 26.67 0 14.73 11.94 26.67 26.67 26.67l73.79 0zM1886.91 1285.24c10.41-10.41 10.41-27.3 0-37.71-10.41-10.41-27.3-10.41-37.71 0l-52.17 52.17c-10.41 10.41-10.41 27.3 0 37.71 10.41 10.41 27.3 10.41 37.71 0l52.17-52.17z"/><path fill="#6633CC" fill-rule="nonzero" d="M1849.2 1337.41c10.41 10.41 27.3 10.41 37.71 0 10.41-10.41 10.41-27.3 0-37.71l-52.17-52.17c-10.41-10.41-27.3-10.41-37.71 0-10.41 10.41-10.41 27.3 0 37.71l52.17 52.17zM1640.15 1271.01c-14.73 0-26.67 11.94-26.67 26.67 0 14.73 11.94 26.67 26.67 26.67l69.44 0c14.73 0 26.67-11.94 26.67-26.67 0-14.73-11.94-26.67-26.67-26.67l-69.44 0z"/></svg>