<svg xmlns="http://www.w3.org/2000/svg" width="224" height="224" fill-rule="evenodd" clip-rule="evenodd" image-rendering="optimizeQuality" shape-rendering="geometricPrecision" text-rendering="geometricPrecision" viewBox="0 0 2333.33 2333.33"><path fill="#6633CC" fill-rule="nonzero" d="M1528.84 953.97c-18.57,5.54 -37.7,18.7 -59.81,38.1 -4.29,4.11 -9.97,6.83 -16.35,7.33 -14.68,1.15 -27.53,-9.81 -28.68,-24.49l0.02 -0.01c-2.35,-29.83 -6.93,-52.96 -16.54,-70.09 -8.71,-15.53 -22.63,-27.17 -44.46,-36.01 -17.46,-7.07 -35.82,-8.49 -53.03,-5.11 -14.31,2.81 -27.81,8.9 -39.34,17.78l0 300.24c7.97,21.79 17.02,44.74 26.63,68.28 7.81,19.13 14.5,35.17 20.77,50.07 142.95,-60.77 280.59,-123.33 319.4,-219.13 9.72,-24 8.81,-49.65 -0.52,-71.69 -9.3,-21.98 -27.07,-40.45 -51.07,-50.18 -21.84,-8.85 -39.94,-10.17 -57.02,-5.08z"/><path fill="#6633CC" fill-rule="nonzero" d="M1470.49 923.65c14.3,-9.36 28.44,-16.34 43.14,-20.72 29.02,-8.65 58.36,-6.98 92.23,6.74 37.51,15.2 65.35,44.26 80.03,78.93 14.66,34.63 16.13,74.81 0.93,112.31 -52.25,129 -252.48,209.63 -372.99,258.72l0 0c-13.67,5.47 -29.2,-1.18 -34.67,-14.85 -0.23,-0.57 -0.43,-1.14 -0.61,-1.71 -11.44,-27.01 -22.8,-53.85 -30.66,-73.11 -10,-24.49 -19.73,-49.31 -28.92,-74.74l-0.08 0c-1.12,-3.1 -1.63,-6.28 -1.59,-9.39l0 -316.41c0,-8.3 3.79,-15.71 9.74,-20.6 20.31,-19.18 45.64,-32.13 72.74,-37.45 27.01,-5.3 55.83,-3.08 83.24,8.03 33.87,13.71 56.1,32.93 70.92,59.35 7.49,13.36 12.8,28.22 16.55,44.89z"/><path fill="#ffffff" fill-rule="nonzero" d="M468.22 699.39l647.54 0c42.62,0 81.35,17.42 109.41,45.48 28.06,28.06 45.48,66.79 45.48,109.41l0 910.39c0,42.62 -17.42,81.35 -45.48,109.41 -28.06,28.06 -66.79,45.48 -109.41,45.48l-647.54 0c-42.62,0 -81.35,-17.42 -109.41,-45.48 -28.06,-28.06 -45.48,-66.79 -45.48,-109.41l0 -910.39c0,-42.62 17.42,-81.35 45.48,-109.41 28.06,-28.06 66.79,-45.48 109.41,-45.48zm647.54 53.34l-647.54 0c-27.9,0 -53.29,11.43 -71.7,29.85 -18.41,18.41 -29.85,43.8 -29.85,71.7l0 910.39c0,27.9 11.43,53.29 29.85,71.7 18.41,18.41 43.8,29.85 71.7,29.85l647.54 0c27.9,0 53.29,-11.43 71.7,-29.85 18.41,-18.41 29.85,-43.8 29.85,-71.7l0 -910.39c0,-27.9 -11.43,-53.29 -29.85,-71.7 -18.41,-18.41 -43.8,-29.85 -71.7,-29.85z"/><path fill="#ffffff" fill-rule="nonzero" d="M1323.13 425.08l600.16 243.11c39.43,15.97 68.78,46.68 84.27,83.28 15.47,36.55 17.09,78.96 1.12,118.39l-341.79 843.79c-15.98,39.43 -46.69,68.78 -83.29,84.27 -36.54,15.47 -78.95,17.09 -118.38,1.12l-231.27 -93.65c-10.5,-4.25 -16.82,-14.44 -16.66,-25.13l0 -825.98c0,-27.9 -11.43,-53.29 -29.85,-71.7 -18.41,-18.41 -43.8,-29.85 -71.7,-29.85l-52.88 0c-14.73,0 -26.67,-11.94 -26.67,-26.67 0,-4.04 0.9,-7.87 2.51,-11.31l82.75 -204.28c15.97,-39.44 46.67,-68.78 83.28,-84.27 36.54,-15.47 78.95,-17.09 118.39,-1.12zm580.16 292.48l-600.16 -243.11c-25.93,-10.5 -53.79,-9.44 -77.77,0.7 -23.92,10.13 -44.02,29.38 -54.52,55.31l-68.43 168.92 13.34 0c42.62,0 81.35,17.42 109.41,45.48 28.06,28.06 45.48,66.79 45.48,109.41l0 808.46 214.59 86.92c25.93,10.5 53.78,9.44 77.76,-0.7 23.92,-10.13 44.03,-29.39 54.53,-55.31l341.79 -843.79c10.5,-25.93 9.45,-53.78 -0.7,-77.76 -10.13,-23.92 -29.39,-44.02 -55.31,-54.52z"/><path fill="#6633CC" fill-rule="nonzero" d="M876.09 1068.02c-21.52,-21.52 -51.25,-34.83 -84.09,-34.83 -32.84,0 -62.57,13.31 -84.09,34.83 -21.52,21.52 -34.83,51.25 -34.83,84.09 0,11.9 1.68,23.24 4.79,33.8 3.08,10.44 7.54,20.27 13.17,29.25 4.99,6.61 6.83,15.45 4.2,23.96 -4.35,14.07 -19.3,21.94 -33.36,17.58l0.02 -0.07c-5.19,-1.6 -10.82,-2.89 -16.83,-3.79 -5.57,-0.83 -11.38,-1.28 -17.4,-1.28 -29.48,0 -56.02,10.84 -75.08,28.35 -18.48,16.98 -29.92,40.31 -29.92,65.94 0,25.65 11.44,48.98 29.92,65.96 19.06,17.51 45.6,28.35 75.09,28.35 19.78,0 38.19,-4.85 53.89,-13.3 15.51,-8.35 28.42,-20.18 37.39,-34.27 4.93,-9.43 15.28,-15.37 26.5,-14.17 14.64,1.57 25.24,14.72 23.67,29.37l-0.06 -0.01 -19.15 177.97 84.2 0 -18.93 -176.1c-1.87,-10.5 2.72,-21.54 12.36,-27.43 12.57,-7.67 28.98,-3.7 36.66,8.86l-0.05 0.04c9,14.74 22.27,27.11 38.33,35.75 15.69,8.44 34.09,13.29 53.85,13.29 29.49,0 56.02,-10.84 75.09,-28.35 18.48,-16.98 29.92,-40.31 29.92,-65.96 0,-25.64 -11.44,-48.97 -29.92,-65.94 -19.06,-17.51 -45.6,-28.35 -75.08,-28.35 -6.09,0 -11.94,0.44 -17.52,1.27 -5.23,0.78 -10.24,1.88 -14.98,3.26 -7.7,2.96 -16.65,2.32 -24.1,-2.51 -12.35,-8.02 -15.87,-24.53 -7.85,-36.89l0.08 0.04c6.11,-9.41 10.93,-19.78 14.19,-30.84 3.11,-10.55 4.79,-21.89 4.79,-33.79 0,-32.84 -13.31,-62.57 -34.83,-84.09z"/><path fill="#6633CC" fill-rule="nonzero" d="M792 979.85c47.56,0 90.63,19.28 121.8,50.46 31.17,31.17 50.46,74.24 50.46,121.8 0,15.83 -2.21,31.32 -6.33,46.13 42.59,0.4 81.28,16.57 109.5,42.51 29.17,26.8 47.22,63.96 47.22,105.11 0,41.16 -18.05,78.32 -47.22,105.13 -28.59,26.26 -67.9,42.52 -111.13,42.52 -28.71,0 -55.75,-7.2 -79.07,-19.76l-1.77 -0.97 14.71 136.8 0.06 -0.01c1.57,14.64 -9.02,27.8 -23.67,29.37 -0.96,0.1 -1.91,0.15 -2.85,0.15l-143.46 0c-14.73,0 -26.67,-11.94 -26.67,-26.67 0,-1.59 0.14,-3.15 0.41,-4.67l14.52 -134.99 -1.76 0.96c-23.33,12.56 -50.37,19.77 -79.1,19.77 -43.23,0 -82.54,-16.26 -111.13,-42.52 -29.17,-26.8 -47.22,-63.96 -47.22,-105.13 0,-41.15 18.05,-78.31 47.22,-105.11 28.23,-25.94 66.92,-42.11 109.52,-42.51 -4.12,-14.82 -6.33,-30.3 -6.33,-46.13 0,-47.56 19.28,-90.63 50.46,-121.8 31.17,-31.18 74.24,-50.46 121.8,-50.46z"/></svg>