<svg xmlns="http://www.w3.org/2000/svg" width="224" height="224" fill-rule="evenodd" clip-rule="evenodd" image-rendering="optimizeQuality" shape-rendering="geometricPrecision" text-rendering="geometricPrecision" viewBox="0 0 2333.33 2333.33"><path fill="#ffffff" d="M459.19 1519.67l0 -816.74c0,-20.96 8.59,-40.04 22.43,-53.88 13.84,-13.84 32.92,-22.43 53.88,-22.43l1262.32 0c20.96,0 40.04,8.59 53.88,22.43 13.84,13.84 22.43,32.92 22.43,53.88l0 816.74 -546.56 0c-14.73,0 -26.67,11.94 -26.67,26.67l0 50.96 -268.47 0 0 -50.96c0,-14.73 -11.94,-26.67 -26.67,-26.67l-546.57 0zm-26.67 53.34l546.57 0 0 41.22c0,10.04 4.09,19.15 10.67,25.73 6.58,6.58 15.69,10.67 25.73,10.67l302.35 0c10.04,0 19.15,-4.09 25.73,-10.67 6.58,-6.58 10.67,-15.69 10.67,-25.73l0 -41.22 546.56 0 62.35 0c1.98,0 3.51,1.49 3.51,3.5l0 63.37c0,18.43 -7.52,35.18 -19.64,47.31 -12.05,12.06 -28.75,19.54 -47.17,19.54l-1466.37 0c-18.43,0 -35.12,-7.49 -47.17,-19.54 -12.12,-12.13 -19.64,-28.87 -19.64,-47.31l0 -63.37c0,-1.99 1.51,-3.5 3.51,-3.5l62.35 0zm-26.67 -870.08l0 816.74 -35.68 0c-31.29,0 -56.85,25.57 -56.85,56.83l0 63.37c0,33.01 13.51,63.04 35.27,84.81 21.81,21.83 51.86,35.38 84.88,35.38l1466.37 0c33.02,0 63.07,-13.55 84.88,-35.38 21.76,-21.78 35.27,-51.8 35.27,-84.81l0 -63.37c0,-14.81 -6.98,-32.48 -18.68,-42 -10.1,-9.2 -23.5,-14.83 -38.17,-14.83l-35.68 0 0 -816.74c0,-35.68 -14.58,-68.1 -38.06,-91.59 -23.49,-23.48 -55.91,-38.06 -91.59,-38.06l-1262.32 0c-35.68,0 -68.1,14.58 -91.59,38.06 -23.48,23.48 -38.06,55.91 -38.06,91.59z"/><path fill="#ffffff" fill-rule="nonzero" d="M960.92 833.75l514.01 0c14.73,0 26.67,11.94 26.67,26.67 0,3.01 -0.5,5.91 -1.42,8.61l-81.36 284.45c-3.37,11.8 -14.19,19.45 -25.9,19.33l-350.56 0c-12.65,0 -23.25,-8.81 -25.98,-20.63l-81.37 -284.43 -0.02 0.01c-4.05,-14.16 4.15,-28.93 18.3,-32.97 2.54,-0.73 5.1,-1.06 7.62,-1.03zm478.67 53.34l-443.61 0 66.48 232.39 310.65 0 66.48 -232.39zm-423.2 265.09c-0.45,-1.94 -0.69,-3.96 -0.69,-6.04l0.69 6.04z"/><path fill="#ffffff" fill-rule="nonzero" d="M1374.17 1272.07c14.73 0 26.67-11.94 26.67-26.67 0-14.73-11.94-26.67-26.67-26.67l-297.21 0c-6.29 0-12.03-2.59-16.2-6.76l0 0-.97-.92c-3.6-4.07-5.8-9.43-5.8-15.28 0-6.29 2.59-12.03 6.76-16.2 4.17-4.17 9.91-6.76 16.2-6.76l297.21 0c14.73 0 26.67-11.94 26.67-26.67 0-14.73-11.94-26.67-26.67-26.67l-297.21 0c-21.01 0-40.09 8.58-53.91 22.39-13.82 13.82-22.39 32.9-22.39 53.91 0 20.06 7.87 38.38 20.67 52.03.54.65 1.11 1.28 1.71 1.88l0 0c13.81 13.81 32.9 22.39 53.91 22.39l297.21 0zM822.27 724.44c-14.73 0-26.67 11.94-26.67 26.67 0 14.73 11.94 26.67 26.67 26.67l72.18 0c.71 0 1.41-.03 2.11-.08 4.88.41 29.21 6.43 37.61 85.53 1.55 14.61 14.66 25.2 29.27 23.65 14.61-1.55 25.2-14.66 23.65-29.27-12.55-118.2-71.87-131.57-89.15-132.94-1.14-.15-2.31-.22-3.49-.22l-72.18 0z"/><path fill="#6633CC" fill-rule="nonzero" d="M1330.57 1351.54c-5.07,0 -9.06,4.02 -9.06,9.05 0,2.5 1.02,4.77 2.65,6.41 1.63,1.63 3.91,2.65 6.41,2.65 2.5,0 4.77,-1.02 6.41,-2.65 1.63,-1.63 2.65,-3.9 2.65,-6.41 0,-5.02 -4,-9.05 -9.06,-9.05z"/><path fill="#6633CC" fill-rule="nonzero" d="M1330.57 1298.2c34.39 0 62.39 28.01 62.39 62.39 0 17.22-6.99 32.82-18.28 44.11-11.29 11.29-26.89 18.28-44.11 18.28-17.22 0-32.82-6.99-44.11-18.28-11.29-11.29-18.28-26.89-18.28-44.11 0-34.4 27.98-62.39 62.39-62.39zM1097.72 1351.54c-5.07 0-9.06 4.02-9.06 9.05 0 2.5 1.02 4.77 2.65 6.41 1.63 1.63 3.9 2.65 6.41 2.65 2.5 0 4.77-1.02 6.41-2.65 1.63-1.63 2.65-3.9 2.65-6.41 0-5.02-4-9.05-9.06-9.05z"/><path fill="#6633CC" fill-rule="nonzero" d="M1097.72 1298.2c34.39,0 62.39,28.01 62.39,62.39 0,17.22 -6.99,32.82 -18.28,44.11 -11.29,11.29 -26.89,18.28 -44.11,18.28 -17.22,0 -32.82,-6.99 -44.11,-18.28 -11.29,-11.29 -18.28,-26.89 -18.28,-44.11 0,-34.4 27.98,-62.39 62.39,-62.39z"/></svg>