<svg xmlns="http://www.w3.org/2000/svg" width="224" height="224" fill-rule="evenodd" clip-rule="evenodd" image-rendering="optimizeQuality" shape-rendering="geometricPrecision" text-rendering="geometricPrecision" viewBox="0 0 2333.33 2333.33"><path fill="#ffffff" fill-rule="nonzero" d="M409.39 601.45l181.02 0c14.73,0 26.67,11.94 26.67,26.67l0 769.83 1129.34 0 0 -769.83c0,-14.73 11.94,-26.67 26.67,-26.67l150.86 0c52.83,0 96.06,43.26 96.06,96.06l0 1019.76c0,52.83 -43.26,96.06 -96.06,96.06l-1514.56 0c-52.83,0 -96.06,-43.26 -96.06,-96.06l0 -1019.76c0,-52.83 43.26,-96.06 96.06,-96.06zm154.35 53.34l-154.35 0c-23.52,0 -42.72,19.19 -42.72,42.72l0 1019.76c0,23.52 19.19,42.72 42.72,42.72l1514.56 0c23.52,0 42.72,-19.19 42.72,-42.72l0 -1019.76c0,-23.52 -19.19,-42.72 -42.72,-42.72l-124.19 0 0 769.83c0,14.73 -11.94,26.67 -26.67,26.67l-1182.68 0c-14.73,0 -26.67,-11.94 -26.67,-26.67l0 -769.83z"/><path fill="#ffffff" fill-rule="nonzero" d="M340 1503.55c-14.73 0-26.67 11.94-26.67 26.67 0 14.73 11.94 26.67 26.67 26.67l1653.33 0c14.73 0 26.67-11.94 26.67-26.67 0-14.73-11.94-26.67-26.67-26.67l-1653.33 0zM590.4 329.93l1182.68 0c14.73 0 26.67 11.94 26.67 26.67l0 1068.03c0 14.73-11.94 26.67-26.67 26.67l-1182.68 0c-14.73 0-26.67-11.94-26.67-26.67l0-1068.03c0-14.73 11.94-26.67 26.67-26.67zm1156.01 53.34l-1129.34 0 0 1014.69 1129.34 0 0-1014.69z"/><path fill="#ffffff" fill-rule="nonzero" d="M590.4 329.93l205.18 0c14.73 0 26.67 11.94 26.67 26.67l0 1068.03c0 14.73-11.94 26.67-26.67 26.67l-205.18 0c-14.73 0-26.67-11.94-26.67-26.67l0-1068.03c0-14.73 11.94-26.67 26.67-26.67zm178.51 53.34l-151.84 0 0 1014.69 151.84 0 0-1014.69zM1567.9 329.93l205.18 0c14.73 0 26.67 11.94 26.67 26.67l0 1068.03c0 14.73-11.94 26.67-26.67 26.67l-205.18 0c-14.73 0-26.67-11.94-26.67-26.67l0-1068.03c0-14.73 11.94-26.67 26.67-26.67zm178.51 53.34l-151.84 0 0 1014.69 151.84 0 0-1014.69z"/><polygon fill="#6633CC" fill-rule="nonzero" points="1213.07 890.61 1135.95 825.17 1135.95 956.05"/><path fill="#6633CC" fill-rule="nonzero" d="M1127.82 748.48l143.63 121.8c11.23,9.53 12.61,26.36 3.08,37.59 -1.36,1.6 -2.86,3 -4.48,4.2l-143.56 121.81 0.04 0.04c-11.23,9.53 -28.06,8.15 -37.59,-3.08 -4.26,-5.02 -6.33,-11.15 -6.33,-17.25l-0 0 0 -245.93c0,-14.73 11.94,-26.67 26.67,-26.67 7.2,0 13.74,2.86 18.54,7.5z"/><path fill="#ffffff" fill-rule="nonzero" d="M1181.74 646.7c67.35,0 128.33,27.3 172.47,71.44 44.14,44.14 71.44,105.12 71.44,172.47 0,67.35 -27.31,128.33 -71.44,172.47 -44.14,44.14 -105.12,71.44 -172.47,71.44 -67.35,0 -128.33,-27.3 -172.47,-71.44 -44.14,-44.14 -71.44,-105.12 -71.44,-172.47 0,-67.35 27.3,-128.33 71.44,-172.47 44.14,-44.14 105.12,-71.44 172.47,-71.44zm134.76 109.15c-34.48,-34.48 -82.13,-55.81 -134.76,-55.81 -52.63,0 -100.28,21.33 -134.76,55.81 -34.48,34.48 -55.81,82.13 -55.81,134.76 0,52.63 21.33,100.28 55.81,134.76 34.48,34.48 82.13,55.81 134.76,55.81 52.63,0 100.28,-21.33 134.76,-55.81 34.48,-34.48 55.81,-82.13 55.81,-134.76 0,-52.63 -21.33,-100.28 -55.81,-134.76z"/><path fill="#6633CC" fill-rule="nonzero" d="M1018.83 1631.77c-14.73,0 -26.67,11.94 -26.67,26.67 0,14.73 11.94,26.67 26.67,26.67l295.67 0c14.73,0 26.67,-11.94 26.67,-26.67 0,-14.73 -11.94,-26.67 -26.67,-26.67l-295.67 0z"/><path fill="#ffffff" fill-rule="nonzero" d="M883.1 1759.99l482.72 0c14.73,0 26.67,11.94 26.67,26.67l0 190.07c0,14.73 -11.94,26.67 -26.67,26.67l-482.72 0c-14.73,0 -26.67,-11.94 -26.67,-26.67l0 -190.07c0,-14.73 11.94,-26.67 26.67,-26.67zm456.06 53.34l-429.39 0 0 136.73 429.39 0 0 -136.73z"/><path fill="#ffffff" fill-rule="nonzero" d="M714.15 1950.06c-14.73 0-26.67 11.94-26.67 26.67 0 14.73 11.94 26.67 26.67 26.67l820.62 0c14.73 0 26.67-11.94 26.67-26.67 0-14.73-11.94-26.67-26.67-26.67l-820.62 0zM590.4 477.76c-14.73 0-26.67 11.94-26.67 26.67 0 14.73 11.94 26.67 26.67 26.67l205.18 0c14.73 0 26.67-11.94 26.67-26.67 0-14.73-11.94-26.67-26.67-26.67l-205.18 0zM590.4 670.85c-14.73 0-26.67 11.94-26.67 26.67 0 14.73 11.94 26.67 26.67 26.67l205.18 0c14.73 0 26.67-11.94 26.67-26.67 0-14.73-11.94-26.67-26.67-26.67l-205.18 0zM590.4 863.94c-14.73 0-26.67 11.94-26.67 26.67 0 14.73 11.94 26.67 26.67 26.67l205.18 0c14.73 0 26.67-11.94 26.67-26.67 0-14.73-11.94-26.67-26.67-26.67l-205.18 0zM590.4 1057.03c-14.73 0-26.67 11.94-26.67 26.67 0 14.73 11.94 26.67 26.67 26.67l205.18 0c14.73 0 26.67-11.94 26.67-26.67 0-14.73-11.94-26.67-26.67-26.67l-205.18 0zM590.4 1250.12c-14.73 0-26.67 11.94-26.67 26.67 0 14.73 11.94 26.67 26.67 26.67l205.18 0c14.73 0 26.67-11.94 26.67-26.67 0-14.73-11.94-26.67-26.67-26.67l-205.18 0zM1567.9 477.76c-14.73 0-26.67 11.94-26.67 26.67 0 14.73 11.94 26.67 26.67 26.67l205.18 0c14.73 0 26.67-11.94 26.67-26.67 0-14.73-11.94-26.67-26.67-26.67l-205.18 0zM1567.9 670.85c-14.73 0-26.67 11.94-26.67 26.67 0 14.73 11.94 26.67 26.67 26.67l205.18 0c14.73 0 26.67-11.94 26.67-26.67 0-14.73-11.94-26.67-26.67-26.67l-205.18 0zM1567.9 863.94c-14.73 0-26.67 11.94-26.67 26.67 0 14.73 11.94 26.67 26.67 26.67l205.18 0c14.73 0 26.67-11.94 26.67-26.67 0-14.73-11.94-26.67-26.67-26.67l-205.18 0zM1567.9 1057.03c-14.73 0-26.67 11.94-26.67 26.67 0 14.73 11.94 26.67 26.67 26.67l205.18 0c14.73 0 26.67-11.94 26.67-26.67 0-14.73-11.94-26.67-26.67-26.67l-205.18 0zM1567.9 1250.12c-14.73 0-26.67 11.94-26.67 26.67 0 14.73 11.94 26.67 26.67 26.67l205.18 0c14.73 0 26.67-11.94 26.67-26.67 0-14.73-11.94-26.67-26.67-26.67l-205.18 0z"/></svg>