<svg xmlns="http://www.w3.org/2000/svg" width="224" height="224" fill-rule="evenodd" clip-rule="evenodd" image-rendering="optimizeQuality" shape-rendering="geometricPrecision" text-rendering="geometricPrecision" viewBox="0 0 2333.33 2333.33"><path fill="#ffffff" fill-rule="nonzero" d="M1828.3 800.46c-14.73,0 -26.67,11.94 -26.67,26.67 0,14.73 11.94,26.67 26.67,26.67l138.37 0 0 855.85 -1600 0 0 -855.85 138.37 0c14.73,0 26.67,-11.94 26.67,-26.67 0,-14.73 -11.94,-26.67 -26.67,-26.67l-165.04 0c-14.73,0 -26.67,11.94 -26.67,26.67l0 909.19c0,14.73 11.94,26.67 26.67,26.67l1653.34 0c14.73,0 26.67,-11.94 26.67,-26.67l0 -909.19c0,-14.73 -11.94,-26.67 -26.67,-26.67l-165.04 0z"/><path fill="#ffffff" fill-rule="nonzero" d="M1153.02 1713.5c-12.6,7.54 -16.7,23.86 -9.17,36.46 7.54,12.6 23.86,16.7 36.46,9.17 9.43,-5.66 21.04,-12.82 33.24,-20.35 127.77,-78.82 332.8,-205.3 608.5,-138.67l6.25 -25.83 -6.26 25.92c14.31,3.46 28.73,-5.34 32.19,-19.66 0.5,-2.1 0.74,-4.2 0.75,-6.26l0 -0.41 0 -926.78c0,-11.39 -7.14,-21.11 -17.2,-24.94 -101.09,-49.87 -210.59,-60.89 -325.92,-44.96 -114.07,15.76 -233.68,57.93 -356.33,114.75 -13.34,6.15 -19.17,21.97 -13.02,35.31 6.15,13.34 21.97,19.17 35.31,13.02 118.34,-54.82 233.09,-95.42 341.33,-110.37 100.37,-13.86 195.3,-5.66 282.48,33.9l0 877.49c-280.35,-54.73 -486.02,72.1 -616,152.29 -10.98,6.77 -21.34,13.17 -32.61,19.93z"/><path fill="#ffffff" fill-rule="nonzero" d="M495.56 622.15c101.09,-49.87 210.59,-60.89 325.92,-44.96 114.07,15.76 233.68,57.93 356.33,114.75l0.06 -0.03c9.87,4.57 15.62,14.41 15.46,24.62l0 153.65c0,14.73 -11.94,26.67 -26.67,26.67 -74.52,0 -141.98,30.2 -190.8,79.02 -48.82,48.82 -79.02,116.28 -79.02,190.8 0,74.52 30.2,141.98 79.02,190.8 48.82,48.82 116.28,79.02 190.8,79.02 14.73,0 26.67,11.94 26.67,26.67l0 273.16c0,14.73 -11.94,26.67 -26.67,26.67 -5.8,0 -11.15,-1.85 -15.53,-4.99 -9.07,-5.47 -19.95,-12.18 -31.35,-19.21 -127.77,-78.82 -332.8,-205.3 -608.5,-138.67l0.01 0.09c-14.31,3.46 -28.73,-5.34 -32.19,-19.66 -0.5,-2.1 -0.74,-4.2 -0.75,-6.26l0 -0.41 0 -926.78c0,-11.39 7.14,-21.11 17.2,-24.94zm318.63 7.74c-100.37,-13.86 -195.3,-5.66 -282.48,33.9l0 877.49c274.87,-53.66 477.94,67.21 608.3,147.54l0 -200.08c-78.6,-6.42 -149.24,-40.97 -201.84,-93.56 -58.48,-58.48 -94.65,-139.27 -94.65,-228.51 0,-89.24 36.17,-170.03 94.65,-228.51 52.59,-52.59 123.24,-87.14 201.84,-93.56l0 -111.44c-112.85,-51.21 -222.31,-88.95 -325.81,-103.25z"/><path fill="#6633CC" fill-rule="nonzero" d="M1166.67 843.5c89.24,0 170.03,36.17 228.51,94.65 58.48,58.48 94.65,139.27 94.65,228.51 0,89.24 -36.17,170.03 -94.65,228.51 -58.48,58.48 -139.27,94.65 -228.51,94.65 -89.24,0 -170.03,-36.17 -228.51,-94.65 -58.48,-58.48 -94.65,-139.27 -94.65,-228.51 0,-89.24 36.17,-170.03 94.65,-228.51 58.48,-58.48 139.27,-94.65 228.51,-94.65zm190.8 132.36c-48.82,-48.82 -116.28,-79.02 -190.8,-79.02 -74.52,0 -141.98,30.2 -190.8,79.02 -48.82,48.82 -79.02,116.28 -79.02,190.8 0,74.52 30.2,141.98 79.02,190.8 48.82,48.82 116.28,79.02 190.8,79.02 74.52,0 141.98,-30.2 190.8,-79.02 48.82,-48.82 79.02,-116.28 79.02,-190.8 0,-74.52 -30.2,-141.98 -79.02,-190.8z"/><path fill="#6633CC" fill-rule="nonzero" d="M1085.42 1025.37c-14.73,0 -26.67,11.94 -26.67,26.67 0,14.73 11.94,26.67 26.67,26.67l54.58 0 0 202.59c0,14.73 11.94,26.67 26.67,26.67 14.73,0 26.67,-11.94 26.67,-26.67l0 -229.26c0,-14.73 -11.94,-26.67 -26.67,-26.67l-81.25 0z"/><path fill="#6633CC" fill-rule="nonzero" d="M1081.25 1254.62c-14.73,0 -26.67,11.94 -26.67,26.67 0,14.73 11.94,26.67 26.67,26.67l170.83 0c14.73,0 26.67,-11.94 26.67,-26.67 0,-14.73 -11.94,-26.67 -26.67,-26.67l-170.83 0z"/><circle cx="1122.91" cy="985.8" r="26.04" fill="#6633CC"/></svg>