<svg xmlns="http://www.w3.org/2000/svg" width="224" height="224" fill-rule="evenodd" clip-rule="evenodd" image-rendering="optimizeQuality" shape-rendering="geometricPrecision" text-rendering="geometricPrecision" viewBox="0 0 2333.33 2333.33"><path fill="#ffffff" fill-rule="nonzero" d="M556.5 865.81l191.85 340.64 0.04 -0.02c7.22,12.83 2.68,29.1 -10.15,36.32 -4.14,2.33 -8.65,3.44 -13.09,3.43l-0.21 0 -384.93 0c-14.73,0 -26.67,-11.94 -26.67,-26.67 0,-5.31 1.55,-10.25 4.22,-14.41l191.79 -340.54 -0.01 -0.07c7.22,-12.83 23.49,-17.37 36.32,-10.15 4.87,2.74 8.54,6.78 10.83,11.45zm123.07 327.04l-146.99 -260.99 -146.99 260.99 293.98 0z"/><path fill="#ffffff" fill-rule="nonzero" d="M340 1192.84l927.35 0c14.73,0 26.67,11.94 26.67,26.67l0 426.21c0,14.73 -11.94,26.67 -26.67,26.67l-927.35 0c-14.73,0 -26.67,-11.94 -26.67,-26.67l0 -426.21c0,-14.73 11.94,-26.67 26.67,-26.67zm900.68 53.34l-874.01 0 0 372.87 874.01 0 0 -372.87z"/><path fill="#ffffff" fill-rule="nonzero" d="M751.82 1219.51c0,-14.73 -11.94,-26.67 -26.67,-26.67 -14.73,0 -26.67,11.94 -26.67,26.67l0 426.21c0,14.73 11.94,26.67 26.67,26.67 14.73,0 26.67,-11.94 26.67,-26.67l0 -426.21z"/><path fill="#ffffff" fill-rule="nonzero" d="M532.57 850.93l0.21 0 488.37 0c9.75,0 18.28,5.23 22.93,13.04l244.82 340.02 0.08 -0.06c8.6,11.95 5.89,28.62 -6.06,37.22 -4.72,3.4 -10.18,5.03 -15.58,5.02l0 0 -542.2 0c-10.53,0 -19.63,-6.1 -23.97,-14.96l-191.81 -340.55 -0.04 0.02c-7.22,-12.83 -2.68,-29.1 10.15,-36.32 4.14,-2.33 8.65,-3.44 13.09,-3.43zm475.05 53.34l-429.46 0 162.53 288.57 474.72 0 -207.78 -288.57z"/><polygon fill="#6633CC" fill-rule="nonzero" points="1117.58 1342.49 886.98 1342.49 886.98 1495.95 1117.58 1495.95"/><path fill="#6633CC" fill-rule="nonzero" d="M860.31 1289.15l283.94 0c14.73,0 26.67,11.94 26.67,26.67l0 206.8c0,14.73 -11.94,26.67 -26.67,26.67l-283.94 0c-14.73,0 -26.67,-11.94 -26.67,-26.67l0 -206.8c0,-14.73 11.94,-26.67 26.67,-26.67z"/><path fill="#ffffff" fill-rule="nonzero" d="M475.54 1619.05l114.07 0 0-152.24c0-31.4-25.65-57.03-57.03-57.03l0 0c-31.4 0-57.03 25.65-57.03 57.03l0 152.24zm140.74 53.34l-167.41 0c-14.73 0-26.67-11.94-26.67-26.67l0-178.91c0-60.67 49.67-110.37 110.37-110.37l0 0c60.67 0 110.37 49.67 110.37 110.37l0 178.91c0 14.73-11.94 26.67-26.67 26.67zM1714.83 1133.41l251.44-435.5c.93-1.61.33-4.26-1.31-5.2l-118.02-68.14c-3.27-1.89-4.71.92-6.09 2.96l-251.47 435.55-6.02 153.91 131.48-83.58zm297.48-409.05l-253.6 439.24c-2.07 4.53-5.43 8.53-9.94 11.4l-.04 0-178.73 113.62c-4.59 3.19-10.23 4.98-16.25 4.74-14.71-.57-26.18-12.98-25.6-27.69l.08 0 8.19-209.15c-.2-4.88.93-9.88 3.55-14.42l.07 0 254.7-441.16c6.52-13.33 21.21-24.29 35.52-28.13 14-3.75 29.51-2.15 43.11 5.71l118.02 68.14c27.25 15.73 36.63 50.43 20.89 77.7z"/><path fill="#ffffff" fill-rule="nonzero" d="M1784.33 672.11c-12.71-7.3-28.94-2.92-36.25 9.79-7.3 12.71-2.92 28.94 9.79 36.25l170.57 98.48c12.71 7.3 28.94 2.92 36.25-9.79 7.3-12.71 2.92-28.94-9.79-36.25l-170.57-98.48zM1576.41 1032.42c-12.71-7.36-28.99-3.03-36.35 9.69-7.36 12.71-3.03 28.99 9.69 36.35l170.57 98.48c12.71 7.36 28.99 3.03 36.35-9.69 7.36-12.71 3.03-28.99-9.69-36.35l-170.57-98.48zM1572 1287.03c11.22-9.49 12.62-26.29 3.13-37.5-9.49-11.22-26.29-12.62-37.5-3.13-.44.37-157.61 129.02-1.67 284.96 22.61 22.61 32.8 42.62 34.35 60.04 1.45 16.33-4.79 31.65-15.3 45.3-12.07 15.69-29.58 29.3-48.3 40.2-35.04 20.43-70.83 31.15-82.73 28.26-14.27-3.45-28.63 5.31-32.09 19.58-3.45 14.27 5.31 28.63 19.58 32.09 22.15 5.4 75.87-7.06 121.9-33.89 24.11-14.04 47.08-32.13 63.71-53.73 18.2-23.64 28.9-51.27 26.13-82.39-2.63-29.56-17.38-60.98-49.56-93.16-114.41-114.41-1.98-206.36-1.67-206.63z"/></svg>