<svg xmlns="http://www.w3.org/2000/svg" width="224" height="224" fill-rule="evenodd" clip-rule="evenodd" image-rendering="optimizeQuality" shape-rendering="geometricPrecision" text-rendering="geometricPrecision" viewBox="0 0 2333.33 2333.33"><path fill="#ffffff" fill-rule="nonzero" d="M1619.74 1733.37c-14.73,0 -26.67,11.94 -26.67,26.67 0,14.73 11.94,26.67 26.67,26.67 49.09,0 93.7,-20.06 126.01,-52.38 32.32,-32.32 52.38,-76.93 52.38,-126.02l0 -1116.59c0,-49.09 -20.06,-93.7 -52.38,-126.01 -32.31,-32.32 -76.93,-52.38 -126.01,-52.38l-906.14 0c-49.08,0 -93.69,20.07 -126.01,52.39 -32.32,32.32 -52.39,76.93 -52.39,126.01l0 1384.96c0,14.73 11.94,26.67 26.67,26.67 14.73,0 26.67,-11.94 26.67,-26.67l0 -1384.96c0,-34.36 14.08,-65.62 36.76,-88.3 22.68,-22.68 53.94,-36.76 88.3,-36.76l906.14 0c34.37,0 65.63,14.08 88.3,36.75 22.67,22.67 36.75,53.94 36.75,88.3l0 1116.59c0,34.37 -14.07,65.63 -36.75,88.31 -22.67,22.67 -53.94,36.75 -88.3,36.75z"/><path fill="#ffffff" fill-rule="nonzero" d="M1626.89 2020c14.73,0 26.67,-11.94 26.67,-26.67 0,-14.73 -11.94,-26.67 -26.67,-26.67l-948.37 0c-24.72,0 -47.21,-10.13 -63.53,-26.45 -16.32,-16.32 -26.45,-38.81 -26.45,-63.53 0,-24.72 10.13,-47.21 26.45,-63.53 16.32,-16.32 38.81,-26.45 63.53,-26.45l948.37 0c14.73,0 26.67,-11.94 26.67,-26.67 0,-14.73 -11.94,-26.67 -26.67,-26.67l-948.37 0c-39.44,0 -75.28,16.12 -101.24,42.08 -25.96,25.96 -42.08,61.8 -42.08,101.24 0,39.44 16.12,75.28 42.08,101.24 25.96,25.96 61.8,42.08 101.24,42.08l948.37 0z"/><path fill="#ffffff" fill-rule="nonzero" d="M561.87 1850.02c-14.73,0 -26.67,11.94 -26.67,26.67 0,14.73 11.94,26.67 26.67,26.67l1057.87 0c49.09,0 93.7,-20.06 126.01,-52.38 32.32,-32.32 52.38,-76.93 52.38,-126.02l0 -114.24c0,-14.73 -11.94,-26.67 -26.67,-26.67 -14.73,0 -26.67,11.94 -26.67,26.67l0 114.24c0,34.37 -14.07,65.63 -36.75,88.31 -22.67,22.67 -53.94,36.75 -88.3,36.75l-1057.87 0z"/><path fill="#ffffff" fill-rule="nonzero" d="M678.52 1966.67c-14.73 0-26.67 11.94-26.67 26.67 0 14.73 11.94 26.67 26.67 26.67l941.22 0c49.09 0 93.7-20.06 126.01-52.38 32.32-32.32 52.38-76.93 52.38-126.02l0-230.54c0-14.73-11.94-26.67-26.67-26.67-14.73 0-26.67 11.94-26.67 26.67l0 230.54c0 34.37-14.07 65.63-36.75 88.31-22.67 22.67-53.94 36.75-88.3 36.75l-941.22 0zM760.3 340c0-14.73-11.94-26.67-26.67-26.67-14.73 0-26.67 11.94-26.67 26.67l0 1420.04c0 14.73 11.94 26.67 26.67 26.67 14.73 0 26.67-11.94 26.67-26.67l0-1420.04z"/><path fill="#6633CC" fill-rule="nonzero" d="M1330.76 733.32c-20.17,14.4 -37.02,37.09 -54.28,67.72 -2.3,4.69 -6,8.76 -10.91,11.5 -12.85,7.19 -29.1,2.61 -36.3,-10.24l0.03 -0.02c-17.5,-31.26 -34.54,-54.37 -54.98,-68.96 -19.48,-13.91 -43.58,-20.87 -76.39,-20.87 -36,0 -68.37,12.83 -91.59,33.55 -22.44,20.03 -36.33,47.55 -36.33,77.78 0,61.77 36.15,125.4 90.37,189.93 52.59,62.6 121.74,125.54 192.16,188.48 70.43,-62.95 139.58,-125.89 192.17,-188.48 54.22,-64.53 90.37,-128.16 90.37,-189.93 0,-30.22 -13.89,-57.74 -36.33,-77.78 -23.22,-20.72 -55.59,-33.55 -91.59,-33.55 -32.81,0 -56.91,6.96 -76.4,20.87z"/><path fill="#6633CC" fill-rule="nonzero" d="M1252.54 739.09c14.24,-20.02 29.53,-36.36 47.38,-49.11 28.83,-20.58 62.72,-30.87 107.23,-30.87 49.34,0 94.27,18.08 127.01,47.31 33.52,29.91 54.26,71.41 54.26,117.36 0,76.23 -41.15,150.63 -102.87,224.09 -58.95,70.17 -137.13,139.95 -215.3,209.71l-17.71 -19.79 17.76 19.9c-10.84,9.67 -27.39,8.87 -37.25,-1.7 -77.57,-69.23 -155,-138.49 -213.5,-208.12 -61.72,-73.46 -102.87,-147.87 -102.87,-224.09 0,-45.95 20.74,-87.44 54.26,-117.36 32.74,-29.22 77.67,-47.31 127.01,-47.31 44.5,0 78.4,10.3 107.22,30.87 17.85,12.75 33.15,29.09 47.38,49.11z"/><path fill="#ffffff" fill-rule="nonzero" d="M1055.72 1364.56c-14.73,0 -26.67,11.94 -26.67,26.67 0,14.73 11.94,26.67 26.67,26.67l393.64 0c14.73,0 26.67,-11.94 26.67,-26.67 0,-14.73 -11.94,-26.67 -26.67,-26.67l-393.64 0z"/><path fill="#6633CC" fill-rule="nonzero" d="M943.34 1513.44c-14.73,0 -26.67,11.94 -26.67,26.67 0,14.73 11.94,26.67 26.67,26.67l618.41 0c14.73,0 26.67,-11.94 26.67,-26.67 0,-14.73 -11.94,-26.67 -26.67,-26.67l-618.41 0z"/><path fill="#ffffff" fill-rule="nonzero" d="M733.63 532.01c-14.73,0 -26.67,11.94 -26.67,26.67 0,14.73 11.94,26.67 26.67,26.67l1037.83 0c14.73,0 26.67,-11.94 26.67,-26.67 0,-14.73 -11.94,-26.67 -26.67,-26.67l-1037.83 0z"/></svg>