<svg xmlns="http://www.w3.org/2000/svg" width="224" height="224" fill-rule="evenodd" clip-rule="evenodd" image-rendering="optimizeQuality" shape-rendering="geometricPrecision" text-rendering="geometricPrecision" viewBox="0 0 2333.33 2333.33"><path fill="#ffffff" fill-rule="nonzero" d="M1106.69 1118.35c33.28,0 63.42,13.5 85.23,35.31 21.81,21.81 35.31,51.95 35.31,85.23 0,33.28 -13.5,63.42 -35.31,85.23 -21.81,21.81 -51.95,35.31 -85.23,35.31 -33.28,0 -63.42,-13.5 -85.23,-35.31 -21.81,-21.81 -35.31,-51.95 -35.31,-85.23 0,-33.28 13.5,-63.42 35.31,-85.23l-0 -0c0.56,-0.56 1.15,-1.09 1.74,-1.59 21.72,-20.87 51.15,-33.71 83.49,-33.71zm47.52 73.02c-12.15,-12.15 -28.96,-19.68 -47.52,-19.68 -18.02,0 -34.33,7 -46.32,18.4 -0.39,0.44 -0.78,0.87 -1.2,1.28l-0 -0c-12.15,12.15 -19.68,28.96 -19.68,47.52 0,18.56 7.53,35.37 19.68,47.52 12.15,12.15 28.96,19.68 47.52,19.68 18.56,0 35.37,-7.53 47.52,-19.68 12.15,-12.15 19.68,-28.96 19.68,-47.52 0,-18.56 -7.53,-35.37 -19.68,-47.52z"/><path fill="#ffffff" fill-rule="nonzero" d="M1313.67 1065.57c-7.5,-8.96 -19.64,-11.74 -29.97,-7.77 3.72,-10.38 0.69,-22.41 -8.38,-29.7 -23.52,-18.83 -50.3,-33.83 -79.35,-44.01 -28.09,-9.85 -58.16,-15.2 -89.29,-15.2 -74.56,0 -142.07,30.22 -190.93,79.09 -48.87,48.86 -79.09,116.37 -79.09,190.93 0,74.56 30.23,142.07 79.09,190.93 48.86,48.86 116.37,79.09 190.93,79.09 74.56,0 142.06,-30.22 190.93,-79.09 48.87,-48.86 79.09,-116.37 79.09,-190.93 0,-32.22 -5.73,-63.28 -16.24,-92.18 -10.87,-29.93 -26.83,-57.33 -46.8,-81.15zm-45.47 8.08c-3.08,8.6 -1.65,18.57 4.64,26.08 16.11,19.22 28.95,41.22 37.63,65.11 8.34,22.96 12.9,47.89 12.9,74.06 0,59.84 -24.25,114.01 -63.46,153.22 -39.2,39.21 -93.38,63.46 -153.22,63.46 -59.84,0 -114.02,-24.25 -153.22,-63.46 -39.2,-39.2 -63.46,-93.38 -63.46,-153.22 0,-59.84 24.25,-114.02 63.46,-153.22 39.2,-39.21 93.38,-63.46 153.22,-63.46 25.31,0 49.47,4.26 71.78,12.08 23.22,8.14 44.66,20.15 63.52,35.26 7.65,6.15 17.66,7.37 26.2,4.1z"/><path fill="#ffffff" fill-rule="nonzero" d="M1464.02 966.32c-8.91,-11.68 -25.61,-13.91 -37.29,-5 -11.68,8.91 -13.91,25.61 -5,37.29 25.94,33.96 46.5,72.17 60.41,113.35 13.41,39.69 20.68,82.39 20.68,126.94 0,109.39 -44.34,208.43 -116.02,280.11 -71.67,71.67 -170.71,116.02 -280.1,116.02 -109.39,0 -208.43,-44.34 -280.11,-116.02 -71.67,-71.67 -116.02,-170.72 -116.02,-280.11 0,-109.39 44.34,-208.43 116.02,-280.11 71.68,-71.68 170.72,-116.02 280.11,-116.02 41.36,0 81.15,6.29 118.44,17.96 38.63,12.08 74.77,29.98 107.39,52.65 12.08,8.4 28.69,5.41 37.08,-6.67 8.4,-12.08 5.41,-28.69 -6.67,-37.08 -36.94,-25.68 -77.99,-45.98 -121.97,-59.74 -42.5,-13.29 -87.61,-20.46 -134.28,-20.46 -124.11,0 -236.48,50.31 -317.82,131.65 -81.33,81.34 -131.65,193.7 -131.65,317.82 0,124.11 50.31,236.48 131.65,317.81 81.34,81.33 193.7,131.65 317.82,131.65 124.11,0 236.48,-50.31 317.81,-131.65 81.33,-81.34 131.65,-193.71 131.65,-317.81 0,-50.13 -8.3,-98.51 -23.6,-143.81 -15.85,-46.92 -39.17,-90.33 -68.53,-128.76z"/><path fill="#ffffff" fill-rule="nonzero" d="M1589.25 835.33c-9.43,-11.28 -26.22,-12.77 -37.5,-3.33 -11.28,9.43 -12.77,26.22 -3.33,37.5 42.66,50.96 76.66,109.35 99.72,172.9 22.2,61.17 34.32,127.34 34.32,196.5 0,159 -64.44,302.95 -168.63,407.14 -104.19,104.19 -248.14,168.63 -407.14,168.63 -159,0 -302.95,-64.44 -407.14,-168.63 -104.19,-104.19 -168.64,-248.14 -168.64,-407.14 0,-159 64.44,-302.95 168.64,-407.14 104.19,-104.19 248.14,-168.63 407.14,-168.63 64.14,0 125.66,10.39 182.95,29.58 59.46,19.91 114.69,49.34 163.85,86.49 11.74,8.86 28.44,6.53 37.3,-5.21 8.86,-11.74 6.53,-28.44 -5.21,-37.3 -53.56,-40.46 -113.9,-72.59 -179.07,-94.4 -62.95,-21.08 -130.16,-32.5 -199.82,-32.5 -173.72,0 -331,70.42 -444.85,184.26 -113.85,113.85 -184.27,271.13 -184.27,444.85 0,173.72 70.42,331 184.27,444.85 113.85,113.85 271.13,184.26 444.85,184.26 173.72,0 331,-70.42 444.85,-184.26 113.85,-113.85 184.26,-271.13 184.26,-444.85 0,-75.22 -13.29,-147.5 -37.66,-214.63 -25.25,-69.56 -62.37,-133.37 -108.89,-188.94z"/><path fill="#6633CC" d="M1087.83 1220.05c-10.41,10.41 -10.41,27.3 0,37.71 10.41,10.41 27.3,10.41 37.71,0l123.12 -123.12c44.02,-19.54 369.54,-173.01 435.24,-465.69l0.08 0.01c3.22,-14.37 -5.81,-28.64 -20.18,-31.86 -4.89,-1.1 -9.76,-0.78 -14.2,0.69 -290.05,66.93 -421.34,409.03 -439.36,459.84l-122.43 122.43zm531.57 -518.16c-63.12,185.44 -241.2,304.04 -335.76,355.82 44.89,-100.07 151.77,-290.87 335.76,-355.82z"/><path fill="#6633CC" fill-rule="nonzero" d="M1980.39 610.29c-9.57,15.3 -73.78,98.97 -323.27,79.47 -13.41,-0.41 -24.65,-10.86 -25.73,-24.54l26.58 -2.11 -26.56 2.08c-19.35,-243.85 59.65,-311.35 78.01,-323.62 46.67,-34.89 107.05,-45.1 142.6,9.06 18.72,28.53 24.31,67.24 27.21,91.21 23.98,2.9 62.69,8.49 91.22,27.21 38.65,25.36 58.1,67.91 9.97,141.25l-0.02 -0.02z"/><path fill="#6633CC" fill-rule="nonzero" d="M1682.96 638.12c218.83,12.79 251.41,-54.39 251.52,-54.58 -1.07,-0.62 38.32,-49.2 6.8,-69.89 -21.11,-13.86 -50.17,-16.07 -74.53,-19.63 -13.25,-1.56 -22.32,-2.85 -29.57,-10.11 -8.07,-8.07 -9.38,-21.12 -10.41,-31.98 -2.26,-19.07 -6.39,-52.41 -19.33,-72.13 -18.45,-28.12 -51.11,-1.79 -70.89,7.37 -8.26,5.04 -65.48,47.48 -53.59,250.95z"/><path fill="#ffffff" fill-rule="nonzero" d="M1133.36 484.46c0-14.73-11.94-26.67-26.67-26.67-14.73 0-26.67 11.94-26.67 26.67l0 152c0 14.73 11.94 26.67 26.67 26.67 14.73 0 26.67-11.94 26.67-26.67l0-152zM1861.13 1265.57c14.73 0 26.67-11.94 26.67-26.67 0-14.73-11.94-26.67-26.67-26.67l-152 0c-14.73 0-26.67 11.94-26.67 26.67 0 14.73 11.94 26.67 26.67 26.67l152 0zM1080.02 1993.33c0 14.73 11.94 26.67 26.67 26.67 14.73 0 26.67-11.94 26.67-26.67l0-152c0-14.73-11.94-26.67-26.67-26.67-14.73 0-26.67 11.94-26.67 26.67l0 152zM352.25 1212.23c-14.73 0-26.67 11.94-26.67 26.67 0 14.73 11.94 26.67 26.67 26.67l152 0c14.73 0 26.67-11.94 26.67-26.67 0-14.73-11.94-26.67-26.67-26.67l-152 0z"/></svg>