<svg xmlns="http://www.w3.org/2000/svg" width="224" height="224" fill-rule="evenodd" clip-rule="evenodd" image-rendering="optimizeQuality" shape-rendering="geometricPrecision" text-rendering="geometricPrecision" viewBox="0 0 2333.33 2333.33"><path fill="#ffffff" fill-rule="nonzero" d="M1712.26 1846.57c0,47.72 -19.51,91.08 -50.93,122.5 -31.42,31.42 -74.78,50.93 -122.5,50.93l-744.33 0c-47.72,0 -91.09,-19.51 -122.5,-50.93 -31.42,-31.42 -50.93,-74.79 -50.93,-122.51l0 -1359.81c0,-47.72 19.51,-91.09 50.93,-122.51 31.42,-31.42 74.79,-50.93 122.5,-50.93l744.33 0c47.72,0 91.08,19.51 122.5,50.93 31.42,31.42 50.93,74.79 50.93,122.51l0 1359.81zm-88.64 84.8c21.78,-21.78 35.3,-51.8 35.3,-84.8l0 -1359.81c0,-33 -13.52,-63.02 -35.3,-84.8 -21.78,-21.78 -51.8,-35.3 -84.8,-35.3l-744.33 0c-33,0 -63.02,13.52 -84.8,35.3 -21.78,21.78 -35.3,51.8 -35.3,84.8l0 1359.81c0,33 13.52,63.02 35.3,84.8 21.77,21.77 51.8,35.3 84.8,35.3l744.33 0c33,0 63.02,-13.52 84.79,-35.3z"/><path fill="#ffffff" fill-rule="nonzero" d="M647.74 605.99c-14.73 0-26.67 11.94-26.67 26.67 0 14.73 11.94 26.67 26.67 26.67l1037.85 0c14.73 0 26.67-11.94 26.67-26.67 0-14.73-11.94-26.67-26.67-26.67l-1037.85 0zM647.74 1674.01c-14.73 0-26.67 11.94-26.67 26.67 0 14.73 11.94 26.67 26.67 26.67l1037.85 0c14.73 0 26.67-11.94 26.67-26.67 0-14.73-11.94-26.67-26.67-26.67l-1037.85 0zM1097.35 462.63c-14.73 0-26.67 11.94-26.67 26.67 0 14.73 11.94 26.67 26.67 26.67l138.63 0c14.73 0 26.67-11.94 26.67-26.67 0-14.73-11.94-26.67-26.67-26.67l-138.63 0z"/><circle cx="927.02" cy="489.3" r="26.67" fill="#6633CC"/><circle cx="818.69" cy="489.3" r="26.67" fill="#6633CC"/><path fill="#6633CC" fill-rule="nonzero" d="M1202.49 1811.18c-9.16,-9.16 -21.84,-14.83 -35.83,-14.83 -13.99,0 -26.67,5.67 -35.83,14.83 -9.16,9.16 -14.83,21.84 -14.83,35.83 0,28.06 22.59,50.66 50.66,50.66 28.06,0 50.66,-22.59 50.66,-50.66 0,-13.99 -5.67,-26.67 -14.83,-35.83z"/><path fill="#6633CC" fill-rule="nonzero" d="M1166.67 1743c28.71,0 54.72,11.65 73.54,30.46 18.82,18.82 30.46,44.82 30.46,73.54 0,57.35 -46.7,104 -104,104 -57.35,0 -104,-46.7 -104,-104 0,-28.71 11.64,-54.71 30.46,-73.54 18.82,-18.82 44.82,-30.46 73.54,-30.46z"/><path fill="#ffffff" fill-rule="nonzero" d="M1166.67 912.09c90.86,0 173.57,26.81 233.82,70.15 62.75,45.13 101.57,108.24 101.57,178.59 0,70.35 -38.82,133.45 -101.57,178.59 -60.25,43.33 -142.96,70.15 -233.82,70.15 -13.41,0 -27.35,-0.69 -41.72,-2.01 -14.24,-1.31 -27.99,-3.23 -41.16,-5.7 -2.96,-0.56 -18.26,11.94 -33.21,24.15 -26.82,21.91 -53.03,43.31 -81.33,30.6 -22.71,-10.19 -24.75,-44.62 -26.72,-78.17 -0.99,-16.84 8.35,-26.69 3.2,-29.98 -35.88,-22.94 -64.6,-51.11 -84.27,-82.95 -19.69,-31.87 -30.32,-67.29 -30.08,-104.78 0.44,-70.43 39.28,-133.55 101.94,-178.62 60.14,-43.26 142.57,-70.01 233.34,-70.01zm202.78 113.27c-51.48,-37.03 -123.15,-59.93 -202.78,-59.93 -79.54,0 -150.94,22.85 -202.3,59.8 -49.1,35.32 -79.53,83.36 -79.86,135.7 -0.17,27.24 7.67,53.17 22.17,76.65 15.46,25.03 38.51,47.48 67.6,66.07 17.82,11.4 19.59,41.17 21.38,71.65 1.04,17.68 -11.58,29.69 -4.74,32.75 1.56,0.7 12.11,-11.88 26.11,-23.31 24.39,-19.92 49.33,-40.29 76.55,-35.19 12,2.25 24.08,3.96 36.16,5.07 11.37,1.05 23.69,1.59 36.92,1.59 79.64,0 151.31,-22.91 202.78,-59.93 48.98,-35.23 79.27,-83.17 79.27,-135.46 0,-52.29 -30.3,-100.23 -79.27,-135.46z"/><path fill="#ffffff" fill-rule="nonzero" d="M991.47 1135.89c-14.73 0-26.67 11.94-26.67 26.67 0 14.73 11.94 26.67 26.67 26.67l42.71 0c14.73 0 26.67-11.94 26.67-26.67 0-14.73-11.94-26.67-26.67-26.67l-42.71 0zM1145.31 1135.89c-14.73 0-26.67 11.94-26.67 26.67 0 14.73 11.94 26.67 26.67 26.67l42.71 0c14.73 0 26.67-11.94 26.67-26.67 0-14.73-11.94-26.67-26.67-26.67l-42.71 0zM1299.15 1135.89c-14.73 0-26.67 11.94-26.67 26.67 0 14.73 11.94 26.67 26.67 26.67l42.71 0c14.73 0 26.67-11.94 26.67-26.67 0-14.73-11.94-26.67-26.67-26.67l-42.71 0z"/><path fill="#6633CC" fill-rule="nonzero" d="M1474.93 461.72c-6.29,-6.29 -15,-10.19 -24.61,-10.19 -9.61,0 -18.31,3.89 -24.61,10.19 -6.29,6.29 -10.19,15 -10.19,24.61 0,9.61 3.89,18.31 10.19,24.61 6.29,6.29 15,10.19 24.61,10.19 9.61,0 18.31,-3.89 24.61,-10.19 6.29,-6.29 10.19,-15 10.19,-24.61 0,-9.61 -3.89,-18.31 -10.19,-24.61z"/><path fill="#6633CC" fill-rule="nonzero" d="M1450.32 398.2c24.33,0 46.37,9.87 62.31,25.81 15.95,15.95 25.81,37.98 25.81,62.31 0,24.33 -9.87,46.37 -25.81,62.31 -15.95,15.95 -37.98,25.81 -62.31,25.81 -24.33,0 -46.37,-9.87 -62.31,-25.81 -15.95,-15.95 -25.81,-37.98 -25.81,-62.31 0,-24.33 9.87,-46.37 25.81,-62.31 15.95,-15.95 37.98,-25.81 62.31,-25.81z"/></svg>