<svg xmlns="http://www.w3.org/2000/svg" width="224" height="224" fill-rule="evenodd" clip-rule="evenodd" image-rendering="optimizeQuality" shape-rendering="geometricPrecision" text-rendering="geometricPrecision" viewBox="0 0 2333.33 2333.33"><path fill="#022a32" fill-rule="nonzero" d="M1162.11 704.91l282.23 0c49.08,0 93.69,20.06 126,52.38 32.32,32.31 52.38,76.92 52.38,126l0 525.15c0,49.08 -20.06,93.69 -52.38,126 -32.31,32.31 -76.93,52.38 -126,52.38l-282.23 0c-49.08,0 -93.69,-20.06 -126,-52.38 -32.32,-32.32 -52.38,-76.93 -52.38,-126l0 -525.15c0,-49.08 20.06,-93.69 52.38,-126 32.31,-32.31 76.93,-52.38 126,-52.38zm282.23 53.34l-282.23 0c-34.36,0 -65.63,14.08 -88.3,36.75 -22.67,22.67 -36.75,53.93 -36.75,88.29l0 525.15c0,34.36 14.07,65.62 36.75,88.3 22.67,22.67 53.93,36.75 88.3,36.75l282.23 0c34.36,0 65.63,-14.08 88.3,-36.75 22.68,-22.68 36.75,-53.94 36.75,-88.3l0 -525.15c0,-34.36 -14.08,-65.62 -36.75,-88.29 -22.67,-22.67 -53.93,-36.75 -88.3,-36.75z"/><path fill="#022a32" fill-rule="nonzero" d="M1251.31 978.86c14.73 0 26.67-11.94 26.67-26.67 0-14.73-11.94-26.67-26.67-26.67l-240.93 0c-14.73 0-26.67 11.94-26.67 26.67 0 14.73 11.94 26.67 26.67 26.67l240.93 0zM1251.31 1080.67c14.73 0 26.67-11.94 26.67-26.67 0-14.73-11.94-26.67-26.67-26.67l-240.93 0c-14.73 0-26.67 11.94-26.67 26.67 0 14.73 11.94 26.67 26.67 26.67l240.93 0zM1251.31 1182.47c14.73 0 26.67-11.94 26.67-26.67 0-14.73-11.94-26.67-26.67-26.67l-240.93 0c-14.73 0-26.67 11.94-26.67 26.67 0 14.73 11.94 26.67 26.67 26.67l240.93 0zM1251.31 1284.28c14.73 0 26.67-11.94 26.67-26.67 0-14.73-11.94-26.67-26.67-26.67l-240.93 0c-14.73 0-26.67 11.94-26.67 26.67 0 14.73 11.94 26.67 26.67 26.67l240.93 0zM1251.31 1386.09c14.73 0 26.67-11.94 26.67-26.67 0-14.73-11.94-26.67-26.67-26.67l-240.93 0c-14.73 0-26.67 11.94-26.67 26.67 0 14.73 11.94 26.67 26.67 26.67l240.93 0zM1355.13 925.52c-14.73 0-26.67 11.94-26.67 26.67 0 14.73 11.94 26.67 26.67 26.67l240.93 0c14.73 0 26.67-11.94 26.67-26.67 0-14.73-11.94-26.67-26.67-26.67l-240.93 0zM1355.13 1027.33c-14.73 0-26.67 11.94-26.67 26.67 0 14.73 11.94 26.67 26.67 26.67l240.93 0c14.73 0 26.67-11.94 26.67-26.67 0-14.73-11.94-26.67-26.67-26.67l-240.93 0zM1355.13 1129.13c-14.73 0-26.67 11.94-26.67 26.67 0 14.73 11.94 26.67 26.67 26.67l240.93 0c14.73 0 26.67-11.94 26.67-26.67 0-14.73-11.94-26.67-26.67-26.67l-240.93 0zM1355.13 1230.94c-14.73 0-26.67 11.94-26.67 26.67 0 14.73 11.94 26.67 26.67 26.67l240.93 0c14.73 0 26.67-11.94 26.67-26.67 0-14.73-11.94-26.67-26.67-26.67l-240.93 0zM1355.13 1332.75c-14.73 0-26.67 11.94-26.67 26.67 0 14.73 11.94 26.67 26.67 26.67l240.93 0c14.73 0 26.67-11.94 26.67-26.67 0-14.73-11.94-26.67-26.67-26.67l-240.93 0zM1176.12 849.54c0 14.73 11.94 26.67 26.67 26.67 14.73 0 26.67-11.94 26.67-26.67l0-117.96c0-14.73-11.94-26.67-26.67-26.67-14.73 0-26.67 11.94-26.67 26.67l0 117.96zM1288.6 849.54c0 14.73 11.94 26.67 26.67 26.67 14.73 0 26.67-11.94 26.67-26.67l0-117.96c0-14.73-11.94-26.67-26.67-26.67-14.73 0-26.67 11.94-26.67 26.67l0 117.96zM1401.08 849.54c0 14.73 11.94 26.67 26.67 26.67 14.73 0 26.67-11.94 26.67-26.67l0-117.96c0-14.73-11.94-26.67-26.67-26.67-14.73 0-26.67 11.94-26.67 26.67l0 117.96zM1176.12 1560.16c0 14.73 11.94 26.67 26.67 26.67 14.73 0 26.67-11.94 26.67-26.67l0-117.96c0-14.73-11.94-26.67-26.67-26.67-14.73 0-26.67 11.94-26.67 26.67l0 117.96zM1288.6 1560.16c0 14.73 11.94 26.67 26.67 26.67 14.73 0 26.67-11.94 26.67-26.67l0-117.96c0-14.73-11.94-26.67-26.67-26.67-14.73 0-26.67 11.94-26.67 26.67l0 117.96zM1401.08 1560.16c0 14.73 11.94 26.67 26.67 26.67 14.73 0 26.67-11.94 26.67-26.67l0-117.96c0-14.73-11.94-26.67-26.67-26.67-14.73 0-26.67 11.94-26.67 26.67l0 117.96z"/><path fill="#022a32" fill-rule="nonzero" d="M1202.79 1533.49l224.96 0c14.73,0 26.67,11.94 26.67,26.67l0 45.44c0,39.62 -32.53,72.1 -72.1,72.1l-134.1 0c-39.62,0 -72.1,-32.53 -72.1,-72.1l0 -45.44c0,-14.73 11.94,-26.67 26.67,-26.67zm198.29 53.34l-171.62 0 0 18.77c0,10.33 8.42,18.76 18.76,18.76l134.1 0c10.33,0 18.76,-8.42 18.76,-18.76l0 -18.77z"/><path fill="#022a32" fill-rule="nonzero" d="M1267.76 1624.35l95.02 0c14.73,0 26.67,11.94 26.67,26.67l0 103.34c0,20.43 -8.34,38.98 -21.77,52.41 -13.43,13.43 -31.98,21.77 -52.41,21.77 -20.42,0 -38.98,-8.34 -52.41,-21.77 -13.43,-13.43 -21.77,-31.98 -21.77,-52.41l0 -103.34c0,-14.73 11.94,-26.67 26.67,-26.67zm68.35 53.34l-41.68 0 0 76.67c0,5.7 2.35,10.91 6.14,14.7 3.79,3.79 9,6.14 14.7,6.14 5.7,0 10.91,-2.35 14.7,-6.14 3.79,-3.79 6.14,-9 6.14,-14.7l0 -76.67z"/><path fill="#022a32" fill-rule="nonzero" d="M2002.38 1477.47c9.2-11.44 7.38-28.19-4.06-37.39-11.44-9.2-28.19-7.38-37.39 4.06-10.96 13.69-21.76 27.85-32.92 42.48-66.23 86.83-146.02 191.41-250.59 186.64-137.78-6.29-220.16 85.28-281.69 153.68-30.24 33.62-54.28 60.33-67.94 59.08-21.97-2 11.45-72.7 11.55-72.9 6.21-13.29.48-29.1-12.81-35.31-13.29-6.21-29.1-.48-35.31 12.81-.19.4-66.81 139.31 31.78 148.32 40.31 3.68 72.19-31.76 112.32-76.38 54.35-60.42 127.13-141.32 239.81-136.18 132.3 6.04 221.3-110.62 295.17-207.47 11.18-14.66 22-28.85 32.08-41.44zM494.41 1013.42c-2.41 14.5 7.38 28.21 21.88 30.63 14.5 2.41 28.21-7.38 30.63-21.88l66.03-391.43 244.57 111.85c13.34 6.1 29.11.22 35.21-13.12 6.1-13.34.22-29.11-13.12-35.21l-273.94-125.28c-2.64-1.5-5.58-2.57-8.75-3.11-14.52-2.45-28.28 7.34-30.73 21.86l-71.76 425.7z"/><path fill="#6633CC" fill-rule="nonzero" d="M483.91 967.5c-9.11,-12.81 -23.12,-22.15 -39.84,-24.97 -16.79,-2.83 -33.12,1.39 -45.92,10.49 -12.47,8.87 -21.65,22.37 -24.73,38.5 -0.06,0.47 -0.12,0.94 -0.2,1.41l-0.05 -0.01c-2.81,16.77 1.4,33.07 10.5,45.86 8.87,12.46 22.37,21.65 38.5,24.73 0.47,0.06 0.94,0.12 1.41,0.2l-0.01 0.05c16.77,2.81 33.07,-1.4 45.87,-10.5 12.81,-9.11 22.15,-23.12 24.97,-39.84 2.83,-16.8 -1.39,-33.12 -10.5,-45.93z"/><path fill="#6633CC" fill-rule="nonzero" d="M452.82 890.02c31.24,5.26 57.41,22.71 74.42,46.64 17.02,23.93 24.93,54.33 19.67,85.51 -5.27,31.24 -22.71,57.41 -46.64,74.42 -23.44,16.67 -53.09,24.59 -83.59,19.97 -1.39,-0.13 -2.76,-0.36 -4.08,-0.69 -30.29,-5.69 -55.63,-22.87 -72.26,-46.25 -16.67,-23.44 -24.59,-53.08 -19.97,-83.58 0.13,-1.39 0.36,-2.76 0.69,-4.08 5.69,-30.3 22.88,-55.64 46.26,-72.27 23.93,-17.02 54.33,-24.92 85.5,-19.67z"/><path fill="#022a32" fill-rule="nonzero" d="M488.03 1614.46c-3.28,14.32 5.68,28.6 20,31.87 14.32,3.28 28.6,-5.68 31.87,-20l89.6 -389.46c17.72,10.64 41.95,30.54 62.78,66.62 53.73,93.07 136.41,73.96 136.65,73.91 14.38,-3.05 23.57,-17.18 20.52,-31.56 -3.05,-14.38 -17.18,-23.57 -31.56,-20.52 -0.13,0.03 -45.55,10.65 -79.57,-48.28 -43.3,-75.02 -103.27,-97.6 -117.97,-102.17 -1.16,-0.44 -2.37,-0.82 -3.63,-1.11 -14.35,-3.3 -28.67,5.66 -31.97,20.01l-96.73 420.7z"/><path fill="#6633CC" fill-rule="nonzero" d="M480.18 1567.96c-8.33,-13.31 -21.74,-23.44 -38.25,-27.24 -16.55,-3.8 -33.11,-0.52 -46.49,7.85 -13.3,8.33 -23.44,21.74 -27.24,38.25 -3.8,16.55 -0.52,33.11 7.85,46.49 8.33,13.3 21.74,23.44 38.25,27.24 16.55,3.8 33.11,0.53 46.49,-7.85 13.31,-8.33 23.44,-21.74 27.24,-38.25 3.8,-16.55 0.53,-33.11 -7.85,-46.49z"/><path fill="#6633CC" fill-rule="nonzero" d="M453.8 1488.85c30.9,7.11 56,26.08 71.59,50.99 15.54,24.83 21.6,55.63 14.51,86.49 -7.11,30.9 -26.08,56 -50.99,71.59 -24.83,15.54 -55.63,21.6 -86.49,14.51 -30.9,-7.11 -56,-26.08 -71.59,-50.98 -15.54,-24.83 -21.61,-55.63 -14.51,-86.49 7.11,-30.9 26.08,-56 50.98,-71.59 24.83,-15.54 55.63,-21.61 86.49,-14.51z"/><path fill="#022a32" fill-rule="nonzero" d="M1790.63 851.15c-0.52,14.67 10.96,26.98 25.63,27.5 14.67,0.52 26.98,-10.96 27.5,-25.63l15.39 -431.35 0.09 0c0.52,-14.72 -10.98,-27.08 -25.7,-27.6 -1.31,-0.05 -2.59,0 -3.86,0.14 -15.28,0.59 -79.16,6.8 -140.37,68.03 -48.22,48.23 -89.18,26.3 -89.3,26.24 -13.06,-6.67 -29.06,-1.5 -35.73,11.56 -6.67,13.06 -1.5,29.06 11.56,35.73 0.22,0.11 75.3,40.06 151.17,-35.82 29.48,-29.48 58,-42.47 77.87,-48.19l-14.25 399.39z"/><path fill="#6633CC" fill-rule="nonzero" d="M1827.08 771.28c21.46,-19.98 50.57,-31.78 82.24,-30.65 31.68,1.13 59.89,14.98 79.87,36.44 19.98,21.46 31.77,50.58 30.65,82.23 -1.13,31.67 -14.97,59.89 -36.44,79.87 -21.46,19.98 -50.57,31.78 -82.24,30.65 -31.67,-1.13 -59.89,-14.98 -79.87,-36.44 -19.98,-21.46 -31.77,-50.57 -30.65,-82.23 1.13,-31.68 14.98,-59.89 36.44,-79.87z"/><path fill="#6633CC" fill-rule="nonzero" d="M1907.44 793.76c-16.95,-0.6 -32.57,5.74 -44.11,16.48 -11.53,10.74 -18.96,25.85 -19.57,42.79 -0.6,16.95 5.74,32.57 16.48,44.11 10.73,11.53 25.85,18.97 42.79,19.57 16.95,0.6 32.57,-5.74 44.11,-16.48 11.53,-10.73 18.96,-25.85 19.57,-42.79 0.6,-16.95 -5.74,-32.57 -16.48,-44.11 -10.73,-11.53 -25.85,-18.97 -42.79,-19.57z"/></svg>