<svg xmlns="http://www.w3.org/2000/svg" width="224" height="224" fill-rule="evenodd" clip-rule="evenodd" image-rendering="optimizeQuality" shape-rendering="geometricPrecision" text-rendering="geometricPrecision" viewBox="0 0 2333.33 2333.33"><path fill="#022a32" fill-rule="nonzero" d="M1370.17 439.21c8.63-11.91 5.97-28.56-5.94-37.19-11.91-8.63-28.56-5.97-37.19 5.94l-111.15 153.7c-8.63 11.91-5.97 28.56 5.94 37.19 11.91 8.63 28.56 5.97 37.19-5.94l111.15-153.7zM1018.48 407.96c-8.63-11.91-25.28-14.57-37.19-5.94-11.91 8.63-14.57 25.28-5.94 37.19l111.15 153.7c8.63 11.91 25.28 14.57 37.19 5.94 11.91-8.63 14.57-25.28 5.94-37.19l-111.15-153.7z"/><path fill="#6633CC" fill-rule="nonzero" d="M1166.67 531.68c35,0 66.7,14.2 89.64,37.14 22.94,22.94 37.13,54.64 37.13,89.64 0,14.73 -11.94,26.67 -26.67,26.67l-200.2 0c-14.73,0 -26.67,-11.94 -26.67,-26.67 0,-35 14.19,-66.7 37.13,-89.64 22.94,-22.94 54.64,-37.14 89.64,-37.14z"/><path fill="#022a32" fill-rule="nonzero" d="M570.98 631.78l1191.37 0c14.73,0 26.67,11.94 26.67,26.67l0 787.68c0,14.73 -11.94,26.67 -26.67,26.67l-1191.37 0c-14.73,0 -26.67,-11.94 -26.67,-26.67l0 -787.68c0,-14.73 11.94,-26.67 26.67,-26.67zm1164.7 53.34l-1138.03 0 0 734.34 1138.03 0 0 -734.34z"/><path fill="#022a32" fill-rule="nonzero" d="M729.83 736.81l873.67 0c14.73 0 26.67 11.94 26.67 26.67l0 577.63c0 14.73-11.94 26.67-26.67 26.67l-873.67 0c-14.73 0-26.67-11.94-26.67-26.67l0-577.63c0-14.73 11.94-26.67 26.67-26.67zm847 53.34l-820.33 0 0 524.3 820.33 0 0-524.3zM423.29 1543.28l1486.75 0c14.73 0 26.67 11.94 26.67 26.67l0 423.38c0 14.73-11.94 26.67-26.67 26.67l-1486.75 0c-14.73 0-26.67-11.94-26.67-26.67l0-423.38c0-14.73 11.94-26.67 26.67-26.67zm1460.08 53.34l-1433.41 0 0 370.04 1433.41 0 0-370.04z"/><path fill="#022a32" fill-rule="nonzero" d="M733.44 1543.28l866.45 0c14.73,0 26.67,11.94 26.67,26.67l0 423.38c0,14.73 -11.94,26.67 -26.67,26.67l-866.45 0c-14.73,0 -26.67,-11.94 -26.67,-26.67l0 -423.38c0,-14.73 11.94,-26.67 26.67,-26.67zm839.78 53.34l-813.11 0 0 370.04 813.11 0 0 -370.04z"/><path fill="#022a32" fill-rule="nonzero" d="M1261.58 1427.58l123.52 123.52 0 -0c10.41,10.41 10.41,27.3 0,37.72 -5.2,5.21 -12.03,7.81 -18.86,7.81l-399.17 0c-14.73,0 -26.67,-11.94 -26.67,-26.67 0,-7.52 3.11,-14.31 8.11,-19.15l123.52 -123.52 -0 -0c5.2,-5.2 12.03,-7.81 18.86,-7.81l151.52 0c7.52,0 14.3,3.11 19.15,8.11zm40.29 115.7l-70.48 -70.48 -129.44 0 -70.48 70.48 270.41 0z"/><path fill="#6633CC" fill-rule="nonzero" d="M1003.57 949.32c-14.73,0 -26.67,11.94 -26.67,26.67 0,14.73 11.94,26.67 26.67,26.67l152.23 0c14.73,0 26.67,-11.94 26.67,-26.67 0,-14.73 -11.94,-26.67 -26.67,-26.67l-152.23 0z"/><path fill="#6633CC" fill-rule="nonzero" d="M1106.36 975.99c0-14.73-11.94-26.67-26.67-26.67-14.73 0-26.67 11.94-26.67 26.67l0 152.61c0 14.73 11.94 26.67 26.67 26.67 14.73 0 26.67-11.94 26.67-26.67l0-152.61zM1218.41 972.98c-7.3-12.71-23.54-17.09-36.25-9.79-12.71 7.3-17.09 23.54-9.79 36.25l76.22 132.27c7.36 12.75 23.68 17.12 36.43 9.76 4.79-2.77 8.4-6.79 10.65-11.43l75.35-130.5c7.36-12.71 3.03-28.99-9.69-36.35-12.71-7.36-28.99-3.03-36.35 9.69l-53.31 92.34-53.25-92.24zM1218.6 606.52c-13.29-13.29-31.65-21.51-51.93-21.51-20.28 0-38.64 8.22-51.93 21.51-7.12 7.12-12.79 15.7-16.51 25.26l136.88 0c-3.72-9.56-9.39-18.14-16.51-25.26z"/><path fill="#022a32" fill-rule="nonzero" d="M733.44 1754.97l866.45 0c14.73,0 26.67,11.94 26.67,26.67l0 211.69c0,14.73 -11.94,26.67 -26.67,26.67l-866.45 0c-14.73,0 -26.67,-11.94 -26.67,-26.67l0 -211.69c0,-14.73 11.94,-26.67 26.67,-26.67zm839.78 53.34l-813.11 0 0 158.35 813.11 0 0 -158.35z"/><path fill="#022a32" fill-rule="nonzero" d="M1193.33 1781.64c0,-14.73 -11.94,-26.67 -26.67,-26.67 -14.73,0 -26.67,11.94 -26.67,26.67l0 211.69c0,14.73 11.94,26.67 26.67,26.67 14.73,0 26.67,-11.94 26.67,-26.67l0 -211.69z"/><path fill="#6633CC" fill-rule="nonzero" d="M910.98 1843.09c-14.73 0-26.67 11.94-26.67 26.67 0 14.73 11.94 26.67 26.67 26.67l78.14 0c14.73 0 26.67-11.94 26.67-26.67 0-14.73-11.94-26.67-26.67-26.67l-78.14 0zM1344.2 1843.09c-14.73 0-26.67 11.94-26.67 26.67 0 14.73 11.94 26.67 26.67 26.67l78.14 0c14.73 0 26.67-11.94 26.67-26.67 0-14.73-11.94-26.67-26.67-26.67l-78.14 0zM969.86 366.67c-10.85 0-19.5 8.75-19.5 19.51 0 4.97 1.82 9.5 4.81 12.93.31.28.61.56.9.86l0 0c3.52 3.52 8.41 5.71 13.8 5.71 4.98 0 9.51-1.82 12.94-4.81.28-.31.56-.61.86-.9l0 0c3.52-3.52 5.71-8.41 5.71-13.8 0-10.86-8.63-19.51-19.51-19.51z"/><path fill="#6633CC" fill-rule="nonzero" d="M969.86 313.33c40.17 0 72.85 32.7 72.85 72.85 0 20.11-8.16 38.32-21.34 51.5l0 0c-.61.61-1.24 1.19-1.9 1.72-13.02 12.16-30.47 19.61-49.61 19.61-20.11 0-38.32-8.16-51.5-21.34l0 0c-.61-.61-1.19-1.24-1.72-1.9-12.16-13.02-19.61-30.47-19.61-49.61 0-40.16 32.7-72.85 72.84-72.85zM1375.66 366.67c-10.86 0-19.51 8.63-19.51 19.51 0 10.86 8.63 19.5 19.51 19.5 10.86 0 19.51-8.63 19.51-19.5 0-10.86-8.63-19.51-19.51-19.51z"/><path fill="#6633CC" fill-rule="nonzero" d="M1375.66 313.33c40.17,0 72.85,32.7 72.85,72.85 0,40.17 -32.71,72.84 -72.85,72.84 -40.17,0 -72.85,-32.7 -72.85,-72.84 0,-40.17 32.7,-72.85 72.85,-72.85z"/></svg>