<svg xmlns="http://www.w3.org/2000/svg" width="224" height="224" fill-rule="evenodd" clip-rule="evenodd" image-rendering="optimizeQuality" shape-rendering="geometricPrecision" text-rendering="geometricPrecision" viewBox="0 0 2333.33 2333.33"><path fill="#6633CC" fill-rule="nonzero" d="M1468.16 858.63l0 58.26c0.04,2.25 -0.2,4.54 -0.76,6.83 -3.48,14.28 -17.89,23.04 -32.17,19.56l0.02 -0.09c-4.49,-1.09 -9.39,-1.97 -14.69,-2.61 -4.8,-0.57 -9.8,-0.87 -14.98,-0.87l-111.46 0c-5.2,0 -10.22,0.3 -15.02,0.87 -4.54,0.55 -8.86,1.3 -12.94,2.23 -2.52,0.8 -5.21,1.23 -8,1.23 -14.7,0 -26.62,-11.92 -26.62,-26.62l0 -58.78c0,-56.2 46.07,-102.33 102.33,-102.33l31.96 0c56.3,0 102.33,46.05 102.33,102.33z"/><path fill="#6633CC" fill-rule="nonzero" d="M1414.92 886.7l0 -28.08c0,-26.97 -22.07,-49.09 -49.09,-49.09l-31.96 0c-27.03,0 -49.09,22.07 -49.09,49.09l0 28.08c3.12,-0.17 6.23,-0.26 9.34,-0.26l111.46 0c3.11,0 6.22,0.09 9.34,0.26z"/><path fill="#022a32" fill-rule="nonzero" d="M1782.67 1531.6l-68.84 0c-14.7,0 -26.62,-11.92 -26.62,-26.62 0,-40.46 -16.4,-77.09 -42.9,-103.59 -26.51,-26.51 -63.14,-42.91 -103.59,-42.91 -40.46,0 -77.09,16.4 -103.59,42.91 -26.5,26.5 -42.9,63.13 -42.9,103.59 0,14.7 -11.92,26.62 -26.62,26.62l-342.07 0c-14.7,0 -26.62,-11.92 -26.62,-26.62 0,-33.1 -10.87,-63.56 -29.21,-87.98 -18.84,-25.07 -45.57,-43.93 -76.5,-52.87l-0.03 0.09c-14.12,-4.08 -22.26,-18.84 -18.18,-32.96 0.57,-1.99 1.36,-3.85 2.33,-5.59 17.22,-37.45 46.83,-71.36 82.04,-95.69 35.26,-24.37 76.48,-39.48 117.07,-39.48l562.32 0c46.92,0 89.56,19.19 120.46,50.08 30.9,30.9 50.09,73.55 50.09,120.46l0 143.93c0,14.7 -11.92,26.62 -26.62,26.62zm-43.98 -53.24l17.36 0 0 -117.31c0,-32.22 -13.21,-61.55 -34.48,-82.82 -21.27,-21.27 -50.59,-34.48 -82.82,-34.48l-562.32 0c-29.54,0 -60.2,11.45 -86.91,29.91 -20.07,13.87 -37.74,31.52 -50.99,51.17 29.15,13.96 54.38,34.78 73.6,60.36 20.08,26.72 33.62,58.57 38.26,93.17l292.36 0c5.93,-44.5 26.52,-84.39 56.74,-114.61 36.15,-36.15 86.08,-58.51 141.23,-58.51 55.15,0 105.09,22.36 141.23,58.51 30.22,30.23 50.81,70.11 56.74,114.61z"/><path fill="#022a32" fill-rule="nonzero" d="M852.41 1305.24c55.15,0 105.09,22.37 141.23,58.51 36.15,36.15 58.5,86.08 58.5,141.23 0,55.15 -22.36,105.09 -58.5,141.23 -36.15,36.15 -86.09,58.5 -141.23,58.5 -55.15,0 -105.09,-22.36 -141.23,-58.5 -36.14,-36.14 -58.5,-86.08 -58.5,-141.24 0,-55.15 22.37,-105.09 58.5,-141.23 36.15,-36.15 86.08,-58.51 141.23,-58.51zm103.59 96.15c-26.5,-26.5 -63.13,-42.91 -103.59,-42.91 -40.46,0 -77.09,16.4 -103.59,42.91 -26.5,26.5 -42.9,63.13 -42.9,103.59 0,40.46 16.4,77.09 42.9,103.59 26.5,26.5 63.13,42.9 103.59,42.9 40.46,0 77.08,-16.4 103.59,-42.91 26.51,-26.5 42.91,-63.13 42.91,-103.59 0,-40.46 -16.4,-77.09 -42.91,-103.59z"/><path fill="#6633CC" fill-rule="nonzero" d="M852.41 1452.49c-14.5,0 -27.62,5.87 -37.11,15.37 -9.49,9.49 -15.37,22.62 -15.37,37.11 0,29.07 23.4,52.48 52.48,52.48 29.06,0 52.48,-23.41 52.48,-52.48 0,-29.05 -23.46,-52.48 -52.48,-52.48z"/><path fill="#6633CC" fill-rule="nonzero" d="M852.41 1399.25c58.33,0 105.72,47.39 105.72,105.72 0,58.3 -47.48,105.72 -105.72,105.72 -58.32,0 -105.72,-47.42 -105.72,-105.72 0,-29.19 11.84,-55.63 30.96,-74.76 19.13,-19.13 45.57,-30.97 74.76,-30.97z"/><path fill="#022a32" fill-rule="nonzero" d="M1540.72 1305.24c55.15,0 105.09,22.36 141.23,58.51 36.14,36.14 58.5,86.08 58.5,141.23 0,55.15 -22.37,105.09 -58.5,141.24 -36.14,36.14 -86.08,58.5 -141.23,58.5 -55.15,0 -105.09,-22.36 -141.23,-58.5 -36.14,-36.14 -58.5,-86.08 -58.5,-141.24 0,-55.15 22.36,-105.09 58.5,-141.23 36.15,-36.15 86.08,-58.51 141.23,-58.51zm103.59 96.15c-26.51,-26.51 -63.14,-42.91 -103.59,-42.91 -40.46,0 -77.09,16.4 -103.59,42.91 -26.5,26.5 -42.9,63.13 -42.9,103.59 0,40.46 16.4,77.09 42.9,103.59 26.51,26.5 63.14,42.9 103.59,42.9 40.46,0 77.09,-16.4 103.59,-42.9 26.5,-26.5 42.9,-63.13 42.9,-103.59 0,-40.46 -16.4,-77.09 -42.9,-103.59z"/><path fill="#6633CC" fill-rule="nonzero" d="M1540.72 1452.49c-29,0 -52.48,23.44 -52.48,52.48 0,29.06 23.41,52.48 52.48,52.48 29.06,0 52.48,-23.41 52.48,-52.48 0,-29.05 -23.46,-52.48 -52.48,-52.48z"/><path fill="#6633CC" fill-rule="nonzero" d="M1540.72 1399.25c58.33,0 105.72,47.39 105.72,105.72 0,58.3 -47.48,105.72 -105.72,105.72 -58.25,0 -105.72,-47.45 -105.72,-105.72 0,-58.29 47.43,-105.72 105.72,-105.72z"/><path fill="#022a32" fill-rule="nonzero" d="M546.71 724.85l99.75 0c11.69,0 21.61,7.52 25.19,17.99l253.98 583.76c3.38,7.76 2.76,16.26 -0.95,23.2l0.05 0.02c-5.9,12.77 -20.63,18.65 -33.58,13.74 -5.75,-1.56 -11.77,-2.8 -18.02,-3.69 -6.48,-0.92 -13.4,-1.39 -20.71,-1.39 -7.5,0 -14.74,0.53 -21.66,1.56 -7.5,1.11 -14.52,2.68 -21.04,4.66l0.03 0.1c-13.72,4.17 -28.22,-3.31 -32.87,-16.74l-254.94 -585.98c-5.86,-13.48 0.31,-29.16 13.79,-35.02 3.58,-1.56 7.31,-2.27 10.98,-2.21zm82.38 53.24l-42.23 0 230.62 530.26c1.86,-0.33 3.72,-0.64 5.57,-0.92 9.72,-1.44 19.53,-2.19 29.35,-2.19 2,0 4,0.03 6.01,0.1l-229.33 -527.25z"/><path fill="#022a32" fill-rule="nonzero" d="M646.46 778.09l-258.39 0c-20.58 0-39.27-8.4-52.8-21.93-13.53-13.53-21.93-32.22-21.93-52.8 0-41.11 33.65-74.73 74.74-74.73l210.28 0c20.57 0 39.27 8.4 52.8 21.93 13.53 13.53 21.93 32.22 21.93 52.8l0 48.11c0 14.7-11.92 26.62-26.62 26.62zm-258.39-53.24l231.78 0 0-21.49c0-5.89-2.43-11.26-6.33-15.16-3.91-3.9-9.28-6.33-15.16-6.33l-210.28 0c-11.86 0-21.49 9.61-21.49 21.49 0 5.88 2.43 11.26 6.33 15.16 3.9 3.9 9.28 6.33 15.16 6.33zM1168.72 1190.51l362.26 0 0-125.42c0-34.46-14.12-65.81-36.86-88.54-22.74-22.74-54.09-36.86-88.55-36.86l-111.44 0c-34.46 0-65.81 14.12-88.55 36.86-22.74 22.74-36.86 54.09-36.86 88.54l0 125.42zm388.88 53.24l-415.5 0c-14.7 0-26.62-11.92-26.62-26.62l0-152.04c0-49.15 20.09-93.82 52.46-126.19 32.37-32.37 77.04-52.46 126.19-52.46l111.44 0c49.15 0 93.83 20.09 126.19 52.46 32.37 32.37 52.46 77.04 52.46 126.19l0 152.04c0 14.7-11.92 26.62-26.62 26.62zM1862.88 1051.06c190.77-55.94 53.86-241.14 0-304.32-53.85 63.18-190.76 248.38 0 304.32zm19.17-362.43c2.12 2.2 315.9 326.26-10.07 415.07-4.94 1.8-10.47 2.17-15.94.71l.02-.06c-317.96-84.75-36.25-390.46-13.75-414.23.67-.81 1.39-1.59 2.16-2.33 10.61-10.17 27.46-9.81 37.64.8l-.05.05z"/><path fill="#022a32" fill-rule="nonzero" d="M1836.26 1167.54c0,14.7 11.92,26.62 26.62,26.62 14.7,0 26.62,-11.92 26.62,-26.62l0 -274.7c0,-14.7 -11.92,-26.62 -26.62,-26.62 -14.7,0 -26.62,11.92 -26.62,26.62l0 274.7z"/><path fill="#022a32" fill-rule="nonzero" d="M1825.6 931.18c-11.48,-9.13 -28.2,-7.22 -37.33,4.26 -9.13,11.48 -7.22,28.2 4.26,37.33l53.81 42.87c11.48,9.13 28.2,7.22 37.33,-4.26 9.13,-11.48 7.22,-28.2 -4.26,-37.33l-53.81 -42.87z"/><path fill="#022a32" fill-rule="nonzero" d="M1933.23 972.77c11.48-9.13 13.39-25.85 4.26-37.33-9.13-11.48-25.85-13.39-37.33-4.26l-53.82 42.87c-11.48 9.13-13.39 25.85-4.26 37.33 9.13 11.48 25.85 13.39 37.33 4.26l53.82-42.87zM1142.09 1038.48c-14.7 0-26.62 11.92-26.62 26.62 0 14.7 11.92 26.62 26.62 26.62l415.5 0c14.7 0 26.62-11.92 26.62-26.62 0-14.7-11.92-26.62-26.62-26.62l-415.5 0z"/></svg>