<svg xmlns="http://www.w3.org/2000/svg" width="224" height="224" fill-rule="evenodd" clip-rule="evenodd" image-rendering="optimizeQuality" shape-rendering="geometricPrecision" text-rendering="geometricPrecision" viewBox="0 0 2333.33 2333.33"><path fill="#022a32" fill-rule="nonzero" d="M1831.44 1966.67l0.01 0c27.69,0 52.88,-11.35 71.15,-29.62 18.27,-18.28 29.62,-43.47 29.62,-71.16l0 -1285.68 -201.55 0 0 1285.68c0,27.69 11.35,52.88 29.62,71.15 18.28,18.28 43.47,29.62 71.15,29.62zm0.01 53.34l-0.01 0c-42.41,0 -80.94,-17.33 -108.86,-45.25 -27.92,-27.92 -45.25,-66.46 -45.25,-108.86l0 -1312.35c0,-14.73 11.94,-26.67 26.67,-26.67l254.89 0c14.73,0 26.67,11.94 26.67,26.67l0 1312.35c0,42.41 -17.33,80.94 -45.25,108.87 -27.92,27.92 -66.46,45.25 -108.86,45.25z"/><path fill="#022a32" fill-rule="nonzero" d="M1677.33 1865.89c0,14.73 11.94,26.67 26.67,26.67 14.73,0 26.67,-11.94 26.67,-26.67l0 -1525.89c0,-14.73 -11.94,-26.67 -26.67,-26.67l-1329.55 0c-14.73,0 -26.67,11.94 -26.67,26.67l0 1517.38c0,44.74 18.29,85.41 47.75,114.87 29.46,29.46 70.13,47.75 114.87,47.75l1321.04 0c14.73,0 26.67,-11.94 26.67,-26.67 0,-14.73 -11.94,-26.67 -26.67,-26.67l-1321.04 0c-30.02,0 -57.35,-12.31 -77.16,-32.12 -19.81,-19.81 -32.12,-47.14 -32.12,-77.16l0 -1490.71 1276.21 0 0 1499.22z"/><path fill="#6633CC" fill-rule="nonzero" d="M540.6 606.57c-14.73,0 -26.67,11.94 -26.67,26.67 0,14.73 11.94,26.67 26.67,26.67l883.33 0c14.73,0 26.67,-11.94 26.67,-26.67 0,-14.73 -11.94,-26.67 -26.67,-26.67l-883.33 0z"/><path fill="#022a32" fill-rule="nonzero" d="M540.6 881.57c-14.73 0-26.67 11.94-26.67 26.67 0 14.73 11.94 26.67 26.67 26.67l883.33 0c14.73 0 26.67-11.94 26.67-26.67 0-14.73-11.94-26.67-26.67-26.67l-883.33 0zM540.6 1156.57c-14.73 0-26.67 11.94-26.67 26.67 0 14.73 11.94 26.67 26.67 26.67l883.33 0c14.73 0 26.67-11.94 26.67-26.67 0-14.73-11.94-26.67-26.67-26.67l-883.33 0zM540.6 1431.57c-14.73 0-26.67 11.94-26.67 26.67 0 14.73 11.94 26.67 26.67 26.67l441.67 0c14.73 0 26.67-11.94 26.67-26.67 0-14.73-11.94-26.67-26.67-26.67l-441.67 0z"/><polygon fill="#6633CC" fill-rule="nonzero" points="1462.89 1409.91 1176.65 1409.91 1176.65 1785.74 1462.89 1785.74"/><path fill="#6633CC" fill-rule="nonzero" d="M1149.98 1356.57l339.58 0c14.73,0 26.67,11.94 26.67,26.67l0 429.17c0,14.73 -11.94,26.67 -26.67,26.67l-339.58 0c-14.73,0 -26.67,-11.94 -26.67,-26.67l0 -429.17c0,-14.73 11.94,-26.67 26.67,-26.67z"/></svg>