<svg xmlns="http://www.w3.org/2000/svg" width="224" height="224" fill-rule="evenodd" clip-rule="evenodd" image-rendering="optimizeQuality" shape-rendering="geometricPrecision" text-rendering="geometricPrecision" viewBox="0 0 2333.33 2333.33"><path fill="#6633CC" fill-rule="nonzero" d="M802.73 853.35c14.73,0 26.67,-11.94 26.67,-26.67 0,-14.73 -11.94,-26.67 -26.67,-26.67l-84.26 0c-13.88,0 -25.29,10.61 -26.55,24.16l-72.71 581.64 -0.01 0c-1.82,14.61 8.54,27.94 23.15,29.77 1.11,0.14 2.22,0.2 3.31,0.21l0.09 0 1041.93 0c14.73,0 26.67,-11.94 26.67,-26.67 0,-1.43 -0.11,-2.83 -0.33,-4.2l-72.69 -581.46c0,-12.7 -14.2,-23.45 -26.46,-23.44l-84.24 0c-14.73,0 -26.67,11.94 -26.67,26.67 0,14.73 11.94,26.67 26.67,26.67l60.71 0 66.15 529.1 -981.63 0 66.14 -529.1 60.73 0z"/><path fill="#6633CC" fill-rule="nonzero" d="M1097.41 727.27c-0.61,-0.04 -1.22,-0.07 -1.84,-0.07l-1.71 0 -282.11 0 -0.67 0.01 -0.02 0 -0.65 0.02 -0.04 0 -0.63 0.04 -0.05 0 -0.61 0.05 -0.07 0.01 -0.59 0.07 -0.08 0.01 -0.56 0.08 -0.1 0.02 -0.54 0.09 -0.11 0.02 -0.52 0.1 -0.13 0.03 -0.5 0.11 -0.15 0.03 -0.48 0.12 -0.16 0.04 -0.46 0.13 -0.17 0.05 -0.44 0.13 -0.19 0.06 -0.43 0.13 -0.2 0.07 -0.4 0.14 -0.21 0.08 -0.38 0.15 -0.23 0.09 -0.36 0.15 -0.24 0.1 -0.34 0.15 -0.25 0.11 -0.32 0.15 -0.26 0.13 -0.31 0.15 -0.27 0.14 -0.29 0.15 -0.28 0.15 -0.27 0.15 -0.3 0.17 -0.25 0.15 -0.3 0.18 -0.24 0.14 -0.31 0.2 -0.22 0.14 -0.32 0.21 -0.2 0.14 -0.33 0.23 -0.19 0.13 -0.33 0.25 -0.17 0.13 -0.34 0.26 -0.15 0.12 -0.35 0.28 -0.14 0.11 -0.35 0.3 -0.12 0.11 -0.36 0.32 -0.11 0.1 -0.36 0.34 -0.09 0.09 -0.36 0.35 -0.08 0.08 -0.36 0.37 -0.07 0.07 -0.37 0.39 -0.06 0.06 -0.37 0.42 -0.04 0.05 -0.37 0.44 -0.03 0.04 -0.37 0.46 -0.02 0.03 -0.37 0.48 -0.01 0.02 -0.37 0.5 -0 0 -0.35 0.51 -0.01 0.01 -0.34 0.51 -0.02 0.02 -0.31 0.51 -0.02 0.04 -0.3 0.5 -0.03 0.05 -0.28 0.5 -0.04 0.07 -0.26 0.49 -0.04 0.08 -0.24 0.48 -0.05 0.09 -0.22 0.48 -0.5 1.16 -0.06 0.15 -0.17 0.45c-0.15,0.39 -0.29,0.79 -0.41,1.19l-0 0.02 -0.06 0.2 -0.13 0.41 -0.06 0.22 -0.11 0.4 -0 0.02 -0.27 1.11 -0.03 0.12 -0.06 0.27 -0.07 0.37 -0.06 0.29 -0.06 0.35c-0.1,0.63 -0.19,1.27 -0.24,1.92l-0 0.03 -0.03 0.37 -0.02 0.3 -0.02 0.38 -0.01 0.28 -72.5 559.15 -0.1 -0.01c-1.89,14.6 8.41,27.98 23.02,29.87 1.15,0.15 2.3,0.22 3.43,0.22l855.45 0c14.73,0 26.67,-11.94 26.67,-26.67 0,-2 -0.22,-3.94 -0.64,-5.81l-72.39 -559.1 -0.09 -0.63 0 -0.01 -0.1 -0.61 -0.01 -0.04 -0 -0.02 -0.12 -0.64 -0.11 -0.53 -0.02 -0.12 -0.12 -0.49 -0.04 -0.15 -0.12 -0.44 -0.06 -0.19 -0.12 -0.41 -0.07 -0.22c-0.26,-0.84 -0.56,-1.66 -0.89,-2.45l-0.08 -0.19 -0.18 -0.41c-1.34,-2.97 -3.2,-5.63 -5.46,-7.88l-0.03 -0.04 -0.43 -0.41 -0.43 -0.4 -0.04 -0.04 -0.4 -0.36 -0.08 -0.07 -0.37 -0.31 -0.12 -0.1 -0.34 -0.28 -0.16 -0.13 -0.3 -0.24 -0.2 -0.15 -0.27 -0.2 -0.25 -0.18 -0.23 -0.16 -0.3 -0.2 -0.19 -0.13 -0.05 -0.03 -0.45 -0.29 -0.4 -0.25 -0.11 -0.06 -1.02 -0.58 -0.52 -0.28 -0.03 -0.02 -0.5 -0.24c-1.06,-0.52 -2.17,-0.96 -3.3,-1.34l-0.42 -0.13 -0.15 -0.05 -0.48 -0.14 -0.09 -0.02 -0.54 -0.15 -0.04 -0.01 -0.58 -0.14 -0.02 -0.01 -0.57 -0.12 -0.08 -0.02 -0.65 -0.13 -0.45 -0.08 -0.21 -0.03 -0.39 -0.06 -0.28 -0.04 -0.33 -0.04 -0.34 -0.04 -0.68 -0.06 -0.2 -0.02 -0.48 -0.03 -0.13 -0.01 -0.55 -0.02 -0.06 0 -0.62 -0.01 -0.01 0 -0.03 0 -282.08 0 -2.67 0c-0.97,0 -1.94,0.05 -2.88,0.15 -25.18,1.4 -47.93,12.26 -64.72,29.05 -0.86,0.86 -1.7,1.74 -2.53,2.63 -0.83,-0.89 -1.67,-1.77 -2.54,-2.63 -17.23,-17.23 -40.75,-28.21 -66.72,-29.13zm95.93 99.41c0,-12.66 5.2,-24.2 13.57,-32.57 8.37,-8.37 19.91,-13.57 32.57,-13.57l258.79 0 65.89 508.14 -794.96 0 65.89 -508.14 258.78 0c12.66,0 24.2,5.2 32.57,13.57 8.37,8.37 13.57,19.91 13.57,32.57l0 164.94c0,14.73 11.94,26.67 26.67,26.67 14.73,0 26.67,-11.94 26.67,-26.67l0 -164.94z"/><path fill="#022a32" d="M459.19 1519.67l0 -816.74c0,-20.96 8.59,-40.04 22.43,-53.88 13.84,-13.84 32.92,-22.43 53.88,-22.43l1262.32 0c20.96,0 40.04,8.59 53.88,22.43 13.84,13.84 22.43,32.92 22.43,53.88l0 816.74 -546.56 0c-14.73,0 -26.67,11.94 -26.67,26.67l0 50.96 -268.47 0 0 -50.96c0,-14.73 -11.94,-26.67 -26.67,-26.67l-546.57 0zm-26.67 53.34l546.57 0 0 41.22c0,10.04 4.09,19.15 10.67,25.73 6.58,6.58 15.69,10.67 25.73,10.67l302.35 0c10.04,0 19.15,-4.09 25.73,-10.67 6.58,-6.58 10.67,-15.69 10.67,-25.73l0 -41.22 546.56 0 62.35 0c1.98,0 3.51,1.49 3.51,3.5l0 63.37c0,18.43 -7.52,35.18 -19.64,47.31 -12.05,12.06 -28.75,19.54 -47.17,19.54l-1466.37 0c-18.43,0 -35.12,-7.49 -47.17,-19.54 -12.12,-12.13 -19.64,-28.87 -19.64,-47.31l0 -63.37c0,-1.99 1.51,-3.5 3.51,-3.5l62.35 0zm-26.67 -870.08l0 816.74 -35.68 0c-31.29,0 -56.85,25.57 -56.85,56.83l0 63.37c0,33.01 13.51,63.04 35.27,84.81 21.81,21.83 51.86,35.38 84.88,35.38l1466.37 0c33.02,0 63.07,-13.55 84.88,-35.38 21.76,-21.78 35.27,-51.8 35.27,-84.81l0 -63.37c0,-14.81 -6.98,-32.48 -18.68,-42 -10.1,-9.2 -23.5,-14.83 -38.17,-14.83l-35.68 0 0 -816.74c0,-35.68 -14.58,-68.1 -38.06,-91.59 -23.49,-23.48 -55.91,-38.06 -91.59,-38.06l-1262.32 0c-35.68,0 -68.1,14.58 -91.59,38.06 -23.48,23.48 -38.06,55.91 -38.06,91.59z"/></svg>