<svg xmlns="http://www.w3.org/2000/svg" width="224" height="224" fill-rule="evenodd" clip-rule="evenodd" image-rendering="optimizeQuality" shape-rendering="geometricPrecision" text-rendering="geometricPrecision" viewBox="0 0 2333.33 2333.33"><path fill="#022a32" fill-rule="nonzero" d="M933.18 408.65l144.06 83.17 0.11 -0.07c8.2,4.74 12.94,13.17 13.31,21.98l21.69 199.52c1.46,13.42 8.31,25.06 18.18,32.98 9.5,7.64 21.82,11.81 34.81,10.78 0.95,-0.15 1.9,-0.26 2.83,-0.31 12.84,-1.76 23.96,-8.49 31.62,-18.01 7.92,-9.86 12.11,-22.74 10.65,-36.25l-9.85 -90.62 -0.06 0.01c-1.59,-14.64 8.99,-27.8 23.63,-29.39 6.75,-0.73 13.19,1.12 18.31,4.76l144.01 83.15 0.11 -0.07c0.72,0.41 1.4,0.85 2.06,1.32 12.8,8.08 20.14,19.47 23.63,32.47 3.61,13.52 2.5,28.2 -0.83,41.76l-125.27 508.34c-1.07,4.34 -2.71,8.37 -4.85,12.07 -6.8,11.78 -17.94,19.34 -30.54,22.93l0.01 0.02c-0.74,0.21 -1.48,0.39 -2.22,0.53 -10.1,2.47 -21.3,2.41 -31.57,-0.12 -5.61,-1.37 -11.08,-3.52 -16.1,-6.42l-581.64 -335.81c-14.4,-8.31 -24.09,-21.74 -28.08,-36.65 -3.98,-14.85 -2.28,-31.28 6.04,-45.7l-0.08 -0.1c0.31,-0.54 0.65,-1.07 0.99,-1.58l250.5 -433.89 -0.06 -0.03c0.58,-1 1.22,-1.96 1.9,-2.86 8.42,-12.86 21,-21.52 34.83,-25.22 14.89,-3.99 31.35,-2.3 45.78,6.03l0.03 -0.06c0.72,0.42 1.41,0.86 2.07,1.33zm239.25 401.18c-28.05,3.02 -54.77,-5.68 -75.24,-22.14 -20.48,-16.45 -34.72,-40.73 -37.77,-68.82l-20.42 -187.81 -132.35 -76.41c-0.75,-0.34 -1.5,-0.73 -2.22,-1.15l0 -0.07c-1.63,-0.94 -3.58,-1.11 -5.39,-0.63 -1.48,0.39 -2.81,1.19 -3.75,2.31l-0.54 0.98 -0.07 0 -250.48 433.85c-1.22,2.5 -2.57,3.33 -1.58,7.04 0.48,1.79 1.62,3.39 3.3,4.36l581.64 335.81c0.54,0.31 1.28,0.58 2.14,0.79 1.88,0.46 3.85,0.54 5.61,0.21l124.46 -505.03c1.43,-5.8 2.09,-11.41 1.05,-15.3 -1.04,-3.99 -90.67,-53.31 -101.67,-59.67l4.2 38.67c3.04,28.01 -5.65,54.72 -22.11,75.2 -16.03,19.94 -39.47,33.96 -66.65,37.51 -0.7,0.13 -1.41,0.24 -2.16,0.29zm63.75 428.13l-0.01 -0.03 -0 0.01 0.01 0.02 0 0z"/><path fill="#022a32" fill-rule="nonzero" d="M906.81 811.34c-3.04,-11.36 -10.43,-21.57 -21.42,-27.92 -10.94,-6.32 -23.47,-7.59 -34.86,-4.54 -11.37,3.04 -21.57,10.43 -27.92,21.42 -6.32,10.94 -7.59,23.47 -4.54,34.86 6.56,24.51 31.76,39.03 56.28,32.46 24.51,-6.56 39.03,-31.76 32.46,-56.28z"/><path fill="#6633CC" fill-rule="nonzero" d="M912.06 737.38c23.71 13.69 39.64 35.7 46.21 60.21 14.17 52.92-17.27 107.3-70.17 121.48-52.92 14.17-107.3-17.27-121.48-70.17-6.56-24.48-3.76-51.52 9.96-75.28 13.69-23.71 35.7-39.64 60.21-46.2 24.48-6.56 51.52-3.76 75.28 9.96zM1178.64 968.28c-3.04-11.37-10.43-21.57-21.42-27.92-10.94-6.32-23.47-7.59-34.86-4.54-11.37 3.04-21.57 10.43-27.92 21.42-6.32 10.94-7.59 23.47-4.54 34.86 3.04 11.37 10.43 21.57 21.42 27.92 10.94 6.32 23.47 7.59 34.86 4.54 24.57-6.58 39.03-31.76 32.46-56.28z"/><path fill="#6633CC" fill-rule="nonzero" d="M1183.89 894.33c23.71 13.69 39.64 35.7 46.21 60.21 14.17 52.87-17.35 107.32-70.17 121.48-24.49 6.56-51.52 3.76-75.28-9.96-23.72-13.69-39.64-35.7-46.2-60.21-6.56-24.48-3.76-51.52 9.96-75.28 13.69-23.71 35.7-39.64 60.21-46.2 24.48-6.56 51.52-3.76 75.28 9.96zM1120.65 313.79c27.26-2.41 53.19 6.24 73.18 22.3 20.47 16.45 34.71 40.73 37.77 68.82l31.75 291.91c3.04 28-5.65 54.72-22.11 75.2-16.05 19.96-39.51 33.99-66.7 37.52-.68.13-1.36.23-2.04.3l-.04 0-.64.06-.02 0c-.48.04-.96.07-1.44.09-27.26 2.41-53.18-6.25-73.16-22.31-20.47-16.45-34.71-40.73-37.77-68.82l-31.75-291.91c-3.04-28 5.65-54.72 22.11-75.2 16.44-20.46 40.69-34.69 68.75-37.76l-.01-.06c.71-.08 1.41-.13 2.11-.15z"/><path fill="#6633CC" fill-rule="nonzero" d="M1125.75 366.77c-0.94,0.15 -1.91,0.25 -2.88,0.31 -12.84,1.76 -23.96,8.48 -31.61,18.01 -7.93,9.86 -12.11,22.74 -10.65,36.25l31.75 291.91c1.46,13.42 8.31,25.06 18.18,32.99 21.28,17.1 52.14,13.75 69.25,-7.54 7.92,-9.86 12.11,-22.74 10.64,-36.25l-31.75 -291.91c-1.46,-13.42 -8.31,-25.06 -18.18,-32.99 -9.49,-7.63 -21.8,-11.79 -34.75,-10.78z"/><path fill="#022a32" fill-rule="nonzero" d="M598.74 388.96l227.94 131.6 0.11 -0.07c12.75,7.36 17.12,23.68 9.76,36.43 -0.31,0.53 -0.63,1.04 -0.96,1.54l-192.32 333.1 0.06 0.03c-1.06,1.74 -1.24,3.39 -0.7,5.39 0.47,1.78 1.6,3.37 3.26,4.34l0.03 -0.06c12.75,7.36 17.12,23.68 9.76,36.43 -8.46,14.66 -25.56,16.65 -38.59,8.37l-257.11 -148.44 -0.11 0.07c-0.65,-0.37 -1.28,-0.78 -1.88,-1.2 -18.99,-11.63 -31.79,-29.78 -37.18,-49.88 -5.56,-20.73 -3.22,-43.64 8.35,-63.7l-0.06 -0.03c0.42,-0.73 0.87,-1.43 1.35,-2.11 46.42,-80.4 101.96,-190.79 152.57,-264.3 11.63,-18.99 29.78,-31.79 49.88,-37.18 20.52,-5.49 48.25,-2.82 65.84,9.65zm178.39 164.31l-204.94 -118.33c-9.19,-4.16 -14.16,-7.23 -25.54,-4.18 -7.21,1.93 -13.73,6.43 -17.98,13.06 -44.07,85.65 -103.28,178.72 -152.23,263.51 -4.16,9.19 -7.23,14.16 -4.18,25.54 1.93,7.21 6.43,13.73 13.06,17.98 67.77,34.87 141.54,81.81 208.67,120.57 0.51,-1.19 1.06,-2.36 1.65,-3.53 0.43,-1.01 0.92,-2 1.48,-2.98l0.07 0 179.93 -311.65z"/><path fill="#022a32" fill-rule="nonzero" d="M723.96 645.39c-52.38-30.24-106.72-60.14-158.25-91.31-1.05-.35-2.21-.35-3.33-.06-1.42.38-2.65 1.22-3.34 2.41l-73.4 127.14c-2.63 4.56 1.22 6.76 4.15 8.83l155.26 89.64 78.9-136.65zm48.05-33.7c.55.27 1.09.56 1.63.87 12.75 7.36 17.12 23.68 9.76 36.43l-.07 0-104.53 181.06c-.27.55-.56 1.09-.87 1.63-7.36 12.75-23.68 17.12-36.43 9.76l.06-.1-178.29-102.93c-14.17-6.54-25.56-21.99-29.54-36.86-3.86-14.43-2.21-30.41 5.88-44.43l73.4-127.14c8.13-14.08 21.17-23.54 35.63-27.41 13.44-3.6 28.22-2.41 41.51 4.3 1.02.43 2.04.93 3.02 1.5l178.84 103.33zM1363.38 885.91l561.44 324.01c.59.34 1.16.7 1.71 1.07 42.29 25.03 70.77 64.91 82.64 109.2 25.97 96.92-31.28 196.03-128.2 221.99-42.47 11.38-103.23 6.63-139.75-19.28l-486.95-281.14-.11.07c-11.08-6.4-15.83-19.56-12.05-31.27l73.37-297.76-.06-.03c.83-3.38 2.28-6.44 4.18-9.11 8.84-15.31 20.65-31.25 41.68-19.1.72.42 1.42.87 2.09 1.34zm-1.38 60.52l-63.9 259.33 469.68 271.17c35.98 16.3 58.81 24.69 99.45 13.8 68.62-18.39 108.88-88.13 90.49-156.79-8.37-31.25-28.4-59.38-58.11-77.05-151.8-91.52-363.58-213.52-537.61-310.46z"/><path fill="#022a32" fill-rule="nonzero" d="M1810.16 1439.93c14.21-3.8 22.65-18.39 18.85-32.6-3.8-14.21-18.39-22.65-32.6-18.85-13.53 3.63-27.22 1.44-38.41-5.01-10.89-6.29-19.46-16.62-23.26-29.57-.17-.81-.38-1.59-.63-2.37-6.38-26.24 8.93-52.87 34.89-60.48.8-.18 1.6-.39 2.37-.63 13.14-3.18 26.36-.95 37.21 5.31 11.22 6.48 19.98 17.25 23.6 30.76 3.8 14.21 18.39 22.65 32.6 18.85 14.21-3.8 22.65-18.39 18.85-32.6-7.42-27.69-25.37-49.76-48.39-63.05-22.62-13.06-50.11-17.67-77.28-10.83-.53.11-1.06.23-1.58.37l.01.04c-54.72 14.68-87.65 70.62-73.86 125.57.11.56.24 1.11.39 1.66l.04-.01c7.42 27.68 25.37 49.74 48.38 63.03 23.06 13.31 51.16 17.84 78.82 10.43zM1404.72 1030.61c-12.71-7.3-28.94-2.92-36.25 9.79-7.3 12.71-2.92 28.94 9.79 36.25l62.85 36.28c12.71 7.3 28.94 2.92 36.25-9.79 7.3-12.71 2.92-28.94-9.79-36.25l-62.85-36.28zM1544.29 1111.19c-12.71-7.3-28.94-2.92-36.25 9.79-7.3 12.71-2.92 28.94 9.79 36.25l116.18 67.07c12.71 7.3 28.94 2.92 36.25-9.79 7.3-12.71 2.92-28.94-9.79-36.25l-116.18-67.07zM1494.31 1513.61l339.51 77.81c5.58 1.28 11.06 2.91 16.42 4.84 31.01 11.22 54.98 32.5 69.39 59.13 14.35 26.52 19.08 58.24 11.69 90.49-1.26 5.48-2.9 11.07-4.94 16.71l-55.22 152.57c-13.25 36.6-40.47 66.22-73.66 84.46-33.24 18.26-72.77 25.27-110.53 16.61l-339.52-77.81c-5.57-1.28-11.06-2.91-16.42-4.84-31.01-11.22-54.99-32.49-69.39-59.13-14.35-26.52-19.08-58.24-11.69-90.49 1.26-5.48 2.9-11.07 4.94-16.71l55.22-152.57c13.24-36.6 40.47-66.22 73.66-84.46 33.24-18.26 72.77-25.27 110.54-16.62zm327.64 129.69l-339.51-77.81c-24.59-5.63-50.73-.84-73.04 11.41-22.37 12.29-40.6 31.92-49.28 55.92l-55.22 152.57c-1.24 3.41-2.26 6.91-3.07 10.46-4.4 19.21-1.68 37.93 6.69 53.41 8.31 15.37 22.35 27.72 40.65 34.34 3.17 1.15 6.56 2.15 10.17 2.97l339.52 77.81c24.59 5.63 50.73.84 73.04-11.41 22.36-12.29 40.59-31.92 49.28-55.92l55.22-152.57c1.24-3.41 2.26-6.91 3.07-10.46 4.4-19.21 1.68-37.93-6.69-53.41-8.32-15.37-22.35-27.72-40.65-34.34-3.17-1.15-6.56-2.15-10.17-2.97z"/><path fill="#022a32" fill-rule="nonzero" d="M1469.11 1628.36c-14.38-3.11-28.56 6.04-31.67 20.42-3.11 14.38 6.04 28.56 20.42 31.67l280.63 60.7c14.38 3.11 28.56-6.04 31.67-20.42 3.11-14.38-6.04-28.56-20.42-31.67l-280.63-60.7zM1474.43 1791.22c-14.38-3.11-28.56 6.04-31.67 20.42-3.11 14.38 6.04 28.56 20.42 31.67l280.63 60.7c14.38 3.11 28.56-6.04 31.67-20.42 3.11-14.38-6.04-28.56-20.42-31.67l-280.63-60.7z"/></svg>