<svg xmlns="http://www.w3.org/2000/svg" width="224" height="224" fill-rule="evenodd" clip-rule="evenodd" image-rendering="optimizeQuality" shape-rendering="geometricPrecision" text-rendering="geometricPrecision" viewBox="0 0 2333.33 2333.33"><path fill="#6633CC" fill-rule="nonzero" d="M1506.04 1472.03c-0.71,30.04 -5.23,61.04 -13.8,91.74 -2.55,12.07 -13.26,21.13 -26.09,21.13l-106.52 0c-30.59,0 -58.4,-12.5 -78.53,-32.64 -20.13,-20.13 -32.63,-47.94 -32.63,-78.53l0 -0c0,-30.59 12.5,-58.4 32.63,-78.53 20.13,-20.13 47.94,-32.64 78.53,-32.64l110.06 0c11.94,-0.21 22.95,7.69 26.19,19.74l-0.02 0.06c7.44,27.65 10.92,58.03 10.18,89.67z"/><path fill="#6633CC" fill-rule="nonzero" d="M1445.44 1531.56c4.55-20.61 7.01-41.04 7.48-60.79.44-18.96-.95-37.4-4.09-54.88l-89.19 0c-15.87 0-30.33 6.52-40.82 17.01-10.49 10.49-17 24.95-17 40.82l0 0c0 15.87 6.51 30.33 17 40.82 10.49 10.49 24.95 17.01 40.82 17.01l85.8 0zM934.48 1630.33c-15.22-31.09-25.86-63.16-32.17-94.86-.57-2.17-.88-4.46-.88-6.81 0-14.73 11.94-26.67 26.67-26.67l186.49 0c30.59 0 58.4 12.5 78.53 32.63 20.13 20.13 32.64 47.94 32.64 78.53l0 .01c0 30.59-12.5 58.4-32.64 78.53-20.13 20.13-47.94 32.63-78.53 32.63l-103.72 0 0 0c-7.42 0-14.8-3.08-20.07-9.11l.07-.06c-23.11-26.42-41.83-55.1-56.39-84.83z"/><path fill="#6633CC" fill-rule="nonzero" d="M962.02 1555.33c5.19,17.45 11.9,34.78 20.17,51.67 10.86,22.18 24.46,43.73 40.94,63.99l91.46 0c15.87,0 30.33,-6.51 40.82,-17 10.49,-10.49 17.01,-24.95 17.01,-40.82l0 -0.01c0,-15.87 -6.52,-30.33 -17.01,-40.82 -10.49,-10.49 -24.95,-17 -40.82,-17l-152.57 0z"/><path fill="#022a32" fill-rule="nonzero" d="M566.26 1079.44l0.41 0 1267.07 0c14.73,0 26.67,11.94 26.67,26.67 0,1.57 -0.14,3.12 -0.4,4.62l-99.81 885.52 -26.46 -2.92 26.5 2.99c-1.54,13.63 -13.09,23.7 -26.5,23.68l-0.26 0 -1067.21 0c-14.26,0 -25.91,-11.19 -26.63,-25.28l-99.82 -885.63 -0.05 0c-1.65,-14.63 8.88,-27.84 23.51,-29.49 1,-0.11 2,-0.17 2.99,-0.17zm1237.69 53.34l-1207.89 0 93.99 833.89 1019.91 0 93.99 -833.89z"/><path fill="#022a32" fill-rule="nonzero" d="M1200.65 1786.69c152.63-45.92 230.11-162.38 248.17-272.37 7.48-45.55 4.75-89.8-7.04-127.18-11.19-35.44-30.44-64.26-56.64-81.15-39.57-25.51-97.34-24.62-170.53 20.51l.04.09c-9.54 5.88-21.32 5.03-29.82-1.23-72.31-44-129.44-44.67-168.67-19.37-26.2 16.89-45.46 45.71-56.64 81.15-11.8 37.38-14.52 81.64-7.04 127.18 18.06 110 95.54 226.45 248.18 272.37zm300.68-263.83c-21.16 128.9-112.2 265.27-291.63 316.63-5.06 1.83-10.71 2.15-16.28.58l.02-.05c-180.65-50.96-272.22-187.83-293.46-317.17-8.85-53.92-5.5-106.74 8.71-151.76 14.83-46.97 41.54-85.93 78.73-109.91 53.28-34.35 126-37.3 213.24 11.86 87.23-49.15 159.96-46.21 213.24-11.86 37.19 23.98 63.9 62.94 78.72 109.9 14.21 45.02 17.56 97.84 8.71 151.76zM502.49 313.48c49.55 1.11 832.39 25.88 549.13 486.2l0 .02c-1.52 2.46-3.36 4.59-5.45 6.36-26.83 26.35-396.04 371.06-572.61-460.53l-.05.01c-3.06-14.41 6.14-28.57 20.55-31.63 2.85-.61 5.69-.73 8.44-.43zm505.09 455.91c207.78-341.96-331.51-393.82-474.59-401.51 156.27 685.39 445.14 429.74 474.59 401.51zM1693.99 585.35c-114.58 7.22-471.97 48.49-331.87 280.88 23.35 22.09 221.01 191.73 331.87-280.88zm-375.74 311.45c-212.22-344.86 363.95-365.01 406.39-366.03 2.76-.31 5.62-.19 8.48.42 14.41 3.06 23.61 17.22 20.55 31.63l-.05-.01c-133.75 629.91-418.96 351.48-431.08 339.33-1.62-1.55-3.07-3.32-4.3-5.32l0-.02z"/><path fill="#022a32" fill-rule="nonzero" d="M1522.65 775.55c13.92,-4.66 21.43,-19.72 16.77,-33.65 -4.66,-13.92 -19.72,-21.43 -33.65,-16.77 -0.89,0.3 -310.63,99.13 -331.69,577.61 -0.63,14.67 10.75,27.08 25.42,27.71 14.67,0.63 27.08,-10.75 27.71,-25.42 19.44,-441.59 294.65,-529.22 295.44,-529.48z"/><path fill="#022a32" fill-rule="nonzero" d="M800.45 579.21c-13.86,-4.83 -29.03,2.49 -33.86,16.35 -4.83,13.86 2.49,29.03 16.35,33.86 0.95,0.33 331.84,112.48 402.68,565.84 2.24,14.5 15.82,24.43 30.31,22.19 14.5,-2.24 24.43,-15.82 22.19,-30.31 -75.81,-485.19 -436.65,-607.57 -437.68,-607.93z"/></svg>