<svg xmlns="http://www.w3.org/2000/svg" width="224" height="224" fill-rule="evenodd" clip-rule="evenodd" image-rendering="optimizeQuality" shape-rendering="geometricPrecision" text-rendering="geometricPrecision" viewBox="0 0 2333.33 2333.33"><path fill="#6633CC" fill-rule="nonzero" d="M1089.52 946.3l-246.39 0c-14.73,0 -26.67,-11.94 -26.67,-26.67 0,-69.74 57.16,-126.94 126.94,-126.94l45.85 0c34.93,0 66.68,14.28 89.67,37.27 23,23 37.27,54.74 37.27,89.67 0,14.73 -11.94,26.67 -26.67,26.67z"/><path fill="#6633CC" fill-rule="nonzero" d="M874.79 892.96l183.01 0c-3.75-9.55-9.45-18.15-16.6-25.3-13.35-13.35-31.75-21.64-51.96-21.64l-45.85 0c-30.38 0-57.7 18.97-68.61 46.93zM1040.1 320.99c1.02-.31 4.47-1.36 5.87-1.74 23.78-6.5 47.73-3.35 67.72 7.27 19.8 10.51 39.04 32 44.7 53.98.3 1.03.67 2.35 1.11 3.93l8.36 30.58.11-.03c3.88 14.2-4.48 28.86-18.67 32.75l-131.55 45 .02.05c-13.93 4.76-29.1-2.67-33.86-16.6-.45-1.32-.79-2.65-1.03-3.98l-7.73-28.28c-6.96-25.48-3.19-51.96 8.5-74.08 11.74-22.21 31.51-40.28 56.47-48.83z"/><path fill="#6633CC" fill-rule="nonzero" d="M1030.72 394.62c-5.69,10.76 -7.59,23.41 -4.33,35.33l0.89 3.25 82.75 -28.31 -1.78 -6.51c-3.76,-10.89 -8.71,-19.02 -19.56,-24.78 -21.84,-11.6 -47.01,0.3 -57.96,21.02z"/><path fill="#022a32" fill-rule="nonzero" d="M395.8 1746.09l1541.74 0c14.73,0 26.67,11.94 26.67,26.67l0 220.57c0,14.73 -11.94,26.67 -26.67,26.67l-1541.74 0c-14.73,0 -26.67,-11.94 -26.67,-26.67l0 -220.57c0,-14.73 11.94,-26.67 26.67,-26.67zm1515.07 53.34l-1488.4 0 0 167.24 1488.4 0 0 -167.24z"/><path fill="#022a32" fill-rule="nonzero" d="M609.03 1746.09l1115.27 0 0 -193.06 -1115.27 0 0 193.06zm1141.94 53.34l-1168.61 0c-14.73,0 -26.67,-11.94 -26.67,-26.67l0 -246.4c0,-14.73 11.94,-26.67 26.67,-26.67l1168.61 0c14.73,0 26.67,11.94 26.67,26.67l0 246.4c0,14.73 -11.94,26.67 -26.67,26.67z"/><path fill="#022a32" fill-rule="nonzero" d="M1088.05 1499.69l157.23 0c14.73 0 26.67 11.94 26.67 26.67l0 246.4c0 14.73-11.94 26.67-26.67 26.67l-157.23 0c-14.73 0-26.67-11.94-26.67-26.67l0-246.4c0-14.73 11.94-26.67 26.67-26.67zm130.56 53.34l-103.89 0 0 193.06 103.89 0 0-193.06zM905.87 1526.36c0-14.73-11.94-26.67-26.67-26.67-14.73 0-26.67 11.94-26.67 26.67l0 94.42-118.81 0c-14.73 0-26.67 11.94-26.67 26.67l0 125.31c0 14.73 11.94 26.67 26.67 26.67 14.73 0 26.67-11.94 26.67-26.67l0-98.64 118.81 0c14.73 0 26.67-11.94 26.67-26.67l0-121.09zM1480.8 1526.36c0-14.73-11.94-26.67-26.67-26.67-14.73 0-26.67 11.94-26.67 26.67l0 121.09c0 14.73 11.94 26.67 26.67 26.67l118.81 0 0 98.64c0 14.73 11.94 26.67 26.67 26.67 14.73 0 26.67-11.94 26.67-26.67l0-125.31c0-14.73-11.94-26.67-26.67-26.67l-118.81 0 0-94.42z"/><path fill="#6633CC" fill-rule="nonzero" d="M904.45 1428.94c-8.1,-10.29 -16.95,-21.54 -25.25,-34.39 -8.29,12.85 -17.13,24.09 -25.24,34.38 -11.44,14.54 -20.83,26.46 -20.83,32.48 0,10.98 2.95,21.59 10.45,28.29 6.79,6.06 18.14,9.98 35.61,9.98 17.48,0 28.84,-3.92 35.63,-9.98 7.51,-6.7 10.46,-17.31 10.46,-28.29 0,-6.02 -9.39,-17.94 -20.83,-32.48z"/><path fill="#6633CC" fill-rule="nonzero" d="M905.26 1325.89c8.41 28.66 26.23 51.29 41.07 70.13 17.75 22.53 32.3 41.03 32.3 65.4 0 24.65-8 49.68-28.38 67.87-16.15 14.42-39.25 23.74-71.04 23.74-31.78 0-54.87-9.31-71.03-23.74-20.38-18.2-28.37-43.22-28.37-67.87 0-24.38 14.56-42.87 32.29-65.41 15.09-19.16 33.26-42.26 41.48-71.61l-.05-.02c3.97-14.18 18.69-22.46 32.87-18.49 9.83 2.75 16.81 10.67 18.86 19.98zM1191.93 1428.94c-8.1-10.29-16.95-21.53-25.24-34.39-8.29 12.85-17.14 24.09-25.24 34.38-11.44 14.54-20.83 26.46-20.83 32.48 0 10.98 2.95 21.59 10.45 28.29 6.79 6.06 18.14 9.98 35.61 9.98 17.48 0 28.83-3.92 35.63-9.98 7.51-6.7 10.46-17.31 10.46-28.29 0-6.02-9.39-17.94-20.83-32.48z"/><path fill="#6633CC" fill-rule="nonzero" d="M1192.73 1325.89c8.41 28.66 26.23 51.29 41.07 70.13 17.75 22.53 32.3 41.03 32.3 65.4 0 24.65-8 49.68-28.38 67.87-16.15 14.42-39.25 23.74-71.04 23.74-31.78 0-54.87-9.31-71.03-23.74-20.38-18.2-28.37-43.22-28.37-67.87 0-24.38 14.56-42.87 32.29-65.41 15.09-19.16 33.26-42.26 41.48-71.61l-.05-.02c3.97-14.18 18.69-22.46 32.87-18.49 9.83 2.75 16.81 10.67 18.86 19.98zM1479.38 1428.94c-8.1-10.29-16.95-21.54-25.25-34.39-8.29 12.85-17.13 24.09-25.24 34.38-11.44 14.54-20.83 26.46-20.83 32.48 0 10.98 2.95 21.59 10.45 28.29 6.79 6.06 18.13 9.98 35.61 9.98 17.48 0 28.83-3.92 35.63-9.98 7.51-6.7 10.46-17.31 10.46-28.29 0-6.02-9.39-17.94-20.83-32.48z"/><path fill="#6633CC" fill-rule="nonzero" d="M1480.19 1325.89c8.41,28.66 26.23,51.29 41.07,70.13 17.75,22.53 32.3,41.03 32.3,65.4 0,24.65 -8,49.68 -28.38,67.87 -16.15,14.42 -39.25,23.74 -71.04,23.74 -31.78,0 -54.87,-9.31 -71.03,-23.74 -20.38,-18.2 -28.37,-43.22 -28.37,-67.87 0,-24.38 14.56,-42.87 32.29,-65.41 15.09,-19.16 33.26,-42.26 41.48,-71.61l-0.05 -0.02c3.97,-14.18 18.69,-22.46 32.87,-18.49 9.83,2.75 16.81,10.67 18.86,19.98z"/><path fill="#022a32" fill-rule="nonzero" d="M733.85 1499.69l865.64 0c13.65,0 26.08,-5.61 35.1,-14.63l-0 -0c0.39,-0.39 0.79,-0.76 1.2,-1.12 8.31,-8.86 13.43,-20.82 13.43,-33.97l0 -503.67 -965.09 0 0 503.67c0,13.65 5.61,26.08 14.63,35.1l0 -0c0.38,0.38 0.74,0.77 1.09,1.16 8.91,8.34 20.89,13.46 34,13.46zm865.64 53.34l-865.64 0c-27.47,0 -52.53,-10.92 -71.05,-28.63 -0.61,-0.51 -1.19,-1.04 -1.76,-1.61l0 -0c-18.67,-18.67 -30.26,-44.44 -30.26,-72.81l0 -530.34c0,-14.73 11.94,-26.67 26.67,-26.67l1018.43 0c14.73,0 26.67,11.94 26.67,26.67l0 530.34c0,27.42 -10.93,52.48 -28.64,71.05 -0.5,0.6 -1.04,1.19 -1.61,1.76l-0 -0c-18.67,18.67 -44.44,30.26 -72.81,30.26z"/><path fill="#022a32" fill-rule="nonzero" d="M561.24 892.96c-14.73 0-26.67 11.94-26.67 26.67 0 14.73 11.94 26.67 26.67 26.67l112.64 0c14.73 0 26.67-11.94 26.67-26.67 0-14.73-11.94-26.67-26.67-26.67l-112.64 0zM1675.88 892.96c-14.73 0-26.67 11.94-26.67 26.67 0 14.73 11.94 26.67 26.67 26.67l112.64 0c14.73 0 26.67-11.94 26.67-26.67 0-14.73-11.94-26.67-26.67-26.67l-112.64 0zM1358.72 376.08l-548.97 187.78c-47.15 16.13-84.72 50.65-107.25 93.27-18.23 34.48-26.57 74.13-22.18 113.5l886.49-303.23c-15.59-36.17-42.31-64.31-74.78-81.55-36.18-19.21-79.51-24.91-122.5-13.16-3 .81-6.6 1.95-10.81 3.39zm-566.06 137.36l548.97-187.78c4.02-1.38 8.68-2.79 13.93-4.22 56.68-15.5 113.79-7.98 161.46 17.33 47.71 25.33 86.01 68.47 105.07 124.18 1.15 3.37 2.35 7.24 3.58 11.61l.27.75c4.76 13.93-2.67 29.1-16.6 33.86l-939.07 321.17c-1.03.42-2.09.79-3.19 1.09-14.2 3.88-28.87-4.49-32.76-18.69l.1-.05c-16.89-61.8-7.59-126.27 20.99-180.34 28.64-54.19 76.7-98.18 137.25-118.89z"/><path fill="#6633CC" fill-rule="nonzero" d="M1195.11 782.66c-5.59,0 -10.67,2.27 -14.33,5.93 -3.67,3.67 -5.94,8.74 -5.94,14.33 0,5.59 2.27,10.67 5.94,14.33 3.66,3.66 8.74,5.93 14.33,5.93 11.27,0 20.26,-8.98 20.26,-20.26 0,-11.27 -8.98,-20.26 -20.26,-20.26z"/><path fill="#6633CC" fill-rule="nonzero" d="M1195.11 729.32c40.57 0 73.6 33.05 73.6 73.6 0 40.57-33.05 73.6-73.6 73.6-20.31 0-38.72-8.25-52.04-21.56-13.32-13.32-21.57-31.72-21.57-52.04 0-20.31 8.24-38.72 21.57-52.04 13.31-13.31 31.72-21.56 52.04-21.56zM1362.27 687.41c-4.94-4.94-11.77-8-19.31-8-15.15 0-27.31 12.13-27.31 27.31 0 15.14 12.16 27.31 27.31 27.31 15.14 0 27.31-12.16 27.31-27.31 0-7.54-3.06-14.37-8-19.31z"/><path fill="#6633CC" fill-rule="nonzero" d="M1342.96 626.07c22.26,0 42.43,9.04 57.02,23.63 14.6,14.6 23.63,34.76 23.63,57.02 0,44.44 -36.26,80.65 -80.65,80.65 -44.44,0 -80.65,-36.26 -80.65,-80.65 0,-44.47 36.2,-80.65 80.65,-80.65z"/></svg>